<svg width="83" height="49" viewBox="0 0 83 49" fill="none" xmlns="http://www.w3.org/2000/svg">
<path d="M2.91976 35.944L44.8322 10.6914H58.8554L78.2161 22.3694C78.674 22.6532 78.488 23.3849 77.9586 23.3849L65.8241 23.4148L26.1297 47.3234C24.4698 48.3239 22.4092 48.3239 20.7493 47.3234L2.91976 36.5712C2.69081 36.4368 2.69081 36.0933 2.91976 35.944Z" fill="#23322D"/>
<path d="M2.76767 36.3913L0.0917969 30.6419L0.80727 30.1641L6.6026 34.2558L2.76767 36.3913Z" fill="#23322D"/>
<path d="M82.3094 14.9319L78.4316 23.0706L65.8965 15.7532L68.7441 14.0508L82.3094 14.9319Z" fill="#23322D"/>
<path d="M0.0917969 30.6419L47.2415 2.23828H61.2504L82.314 14.9318L68.2335 14.9616L21.141 43.3353L0.0917969 30.6419Z" fill="#D05F0D"/>
<path d="M0.0917969 30.64V29.1914L1.83755 30.0725L0.0917969 30.64Z" fill="#D05F0D"/>
<path d="M82.3088 14.9306V13.4821L79.7617 13.3477L80.3627 14.2437L82.3088 14.9306Z" fill="#D05F0D"/>
<path d="M0.0917969 29.1926L47.2415 0.789062H61.2504L82.314 13.4826L68.2335 13.5124L21.141 41.8861L0.0917969 29.1926Z" fill="#F8F0E5"/>
<path d="M42.4333 6.49219L58.8177 16.3035L21.1695 39.0622L4.78516 29.1912L42.4333 6.49219Z" fill="#ECBF9E"/>
<path d="M0.246919 14.3958L26.4618 30.1955C26.791 30.3896 27.1916 30.3896 27.5064 30.1955L43.948 20.2946C44.1483 20.1751 44.1483 19.8615 43.948 19.742L17.7331 3.94235C17.404 3.74822 17.0033 3.74822 16.6885 3.94235L0.246919 13.8582C0.032277 13.9777 0.032277 14.2764 0.246919 14.3958Z" fill="#D05F0D"/>
<path d="M44.1058 20.0104V18.8008L43.0469 19.5325L44.1058 20.0104Z" fill="#D05F0D"/>
<path d="M0.0898438 14.1262V12.8867L1.17736 13.6334L0.0898438 14.1262Z" fill="#D05F0D"/>
<path d="M0.246919 13.185L26.4618 28.9847C26.791 29.1788 27.1916 29.1788 27.5064 28.9847L43.948 19.0838C44.1483 18.9643 44.1483 18.6507 43.948 18.5312L17.7331 2.73154C17.404 2.5374 17.0033 2.5374 16.6885 2.73154L0.246919 12.6325C0.032277 12.7519 0.032277 13.0655 0.246919 13.185Z" fill="#F8F0E5"/>
<path d="M36.4294 18.3792C37.0734 17.961 37.0447 17.3189 36.3722 16.9455C35.6997 16.5722 34.6408 16.617 33.9968 17.0351C33.3529 17.4533 33.3815 18.0954 34.0541 18.4688C34.7266 18.8421 35.7855 18.7973 36.4294 18.3792Z" stroke="#23322D" stroke-width="0.208925" stroke-miterlimit="10"/>
<path d="M38.1599 19.3323C38.8038 18.9142 38.7752 18.272 38.1027 17.8987C37.4301 17.5253 36.3712 17.5701 35.7273 17.9883C35.0834 18.4064 35.112 19.0486 35.7845 19.4219C36.4571 19.7952 37.516 19.7504 38.1599 19.3323Z" stroke="#23322D" stroke-width="0.208925" stroke-miterlimit="10"/>
<path d="M13.2241 9.34914L11.2351 8.15446C11.0347 8.03499 10.7199 8.02006 10.5339 8.12459L9.21744 8.91607C9.03142 9.0206 9.04573 9.21474 9.26037 9.34914L11.2494 10.5438C11.4497 10.6633 11.7645 10.6782 11.9505 10.5737L13.2527 9.78221C13.4387 9.66275 13.4244 9.46861 13.2241 9.34914Z" fill="#EEDABE"/>
<path d="M4.74307 9.92969L31.974 26.2968L29.4698 27.8201L2.22461 11.438L4.74307 9.92969Z" fill="#23322D"/>
<path d="M8.68945 29L13.8552 25.8789L26.6049 33.5398L21.4821 36.6908L8.68945 29Z" fill="#23322D"/>
<path d="M15.1644 28.684L14.4776 29.0723L15.3648 29.1917L15.2789 29.4755L14.3488 29.2963L14.6493 29.8488L14.1914 29.9086L13.9911 29.371L13.3471 29.7891L13.0037 29.58L13.6906 29.1917L12.7891 29.0723L12.8892 28.8035L13.8193 28.9827L13.5188 28.4152L13.9767 28.3555L14.1771 28.8931L14.8067 28.4749L15.1644 28.684Z" fill="#EEDABE"/>
<path d="M22.2933 32.988L21.5922 33.3763L22.4937 33.4957L22.4078 33.7645L21.4777 33.5853L21.7639 34.1528L21.3203 34.1976L21.12 33.66L20.476 34.0782L20.1183 33.8691L20.8195 33.4808L19.918 33.3613L20.0038 33.0925L20.9339 33.2717L20.6477 32.7043L21.0913 32.6445L21.306 33.1971L21.9356 32.7789L22.2933 32.988Z" fill="#EEDABE"/>
<path d="M19.9203 31.5512L19.2191 31.9395L20.1206 32.0589L20.0348 32.3277L19.1047 32.1485L19.3908 32.716L18.9472 32.7757L18.7469 32.2232L18.103 32.6563L17.7453 32.4323L18.4464 32.0589L17.5449 31.9395L17.6308 31.6557L18.5752 31.8349L18.2747 31.2675L18.7326 31.2227L18.9329 31.7603L19.5626 31.3421L19.9203 31.5512Z" fill="#EEDABE"/>
<path d="M17.5472 30.1137L16.8461 30.502L17.7476 30.6214L17.6617 30.8902L16.7316 30.726L17.0178 31.2785L16.5742 31.3382L16.3739 30.7857L15.7299 31.2188L15.3865 31.0097L16.0734 30.6214L15.1719 30.502L15.2577 30.2332L16.2022 30.3974L15.9017 29.8449L16.3596 29.7852L16.5599 30.3228L17.1895 29.9046L17.5472 30.1137Z" fill="#EEDABE"/>
<path d="M32.5299 39.6158L32.5156 40.0489L53.7079 27.2807V26.8477L32.5299 39.6158Z" fill="white"/>
<path d="M73.7692 33.9279H72.2381C71.9948 33.7189 71.7229 33.5247 71.4081 33.3306C68.2457 31.4191 63.0514 31.434 59.8747 33.3605C59.5742 33.5397 59.3166 33.7338 59.0734 33.9279H57.4707V37.0789H57.485C57.5709 38.2586 58.3436 39.4085 59.8318 40.3045C62.9942 42.216 68.1885 42.2011 71.3652 40.2747C72.8391 39.3787 73.6261 38.2437 73.7406 37.064H73.7692V33.9279Z" fill="#23322D"/>
<path d="M65.6587 38.9132C70.1633 38.8858 73.8028 36.6638 73.7876 33.9504C73.7724 31.2369 70.1083 29.0595 65.6037 29.087C61.099 29.1144 57.4596 31.3364 57.4748 34.0499C57.49 36.7633 61.154 38.9407 65.6587 38.9132Z" fill="#F8F0E5"/>
<path d="M65.6543 37.9888C69.3134 37.9665 72.2696 36.1632 72.2573 33.9611C72.2449 31.759 69.2687 29.992 65.6097 30.0143C61.9506 30.0366 58.9944 31.8398 59.0067 34.0419C59.019 36.244 61.9953 38.0111 65.6543 37.9888Z" fill="#88C8B0"/>
<path d="M73.7692 30.4279H72.2381C71.9948 30.2189 71.7229 30.0247 71.4081 29.8306C68.2457 27.9191 63.0514 27.934 59.8747 29.8605C59.5742 30.0397 59.3166 30.2338 59.0734 30.4279H57.4707V33.5789H57.485C57.5709 34.7586 58.3436 35.9085 59.8318 36.8045C62.9942 38.716 68.1885 38.7011 71.3652 36.7747C72.8391 35.8787 73.6261 34.7437 73.7406 33.564H73.7692V30.4279Z" fill="#23322D"/>
<path d="M65.6587 35.4132C70.1633 35.3858 73.8028 33.1638 73.7876 30.4503C73.7724 27.7369 70.1083 25.5595 65.6037 25.587C61.099 25.6144 57.4596 27.8364 57.4748 30.5498C57.49 33.2633 61.154 35.4407 65.6587 35.4132Z" fill="#F8F0E5"/>
<path d="M65.6543 34.4888C69.3134 34.4665 72.2696 32.6632 72.2573 30.4611C72.2449 28.259 69.2687 26.492 65.6097 26.5143C61.9506 26.5366 58.9944 28.3398 59.0067 30.5419C59.019 32.744 61.9953 34.5111 65.6543 34.4888Z" fill="#88C8B0"/>
<path d="M73.7692 26.9357H72.2381C71.9948 26.7267 71.7229 26.5325 71.4081 26.3384C68.2457 24.4269 63.0514 24.4418 59.8747 26.3683C59.5742 26.5475 59.3166 26.7416 59.0734 26.9357H57.4707V30.0867H57.485C57.5709 31.2665 58.3436 32.4163 59.8318 33.3124C62.9942 35.2238 68.1885 35.2089 71.3652 33.2825C72.8391 32.3865 73.6261 31.2515 73.7406 30.0718H73.7692V26.9357Z" fill="#23322D"/>
<path d="M65.6587 31.921C70.1633 31.8936 73.8028 29.6716 73.7876 26.9582C73.7724 24.2447 70.1083 22.0673 65.6037 22.0948C61.099 22.1223 57.4596 24.3442 57.4748 27.0577C57.49 29.7711 61.154 31.9485 65.6587 31.921Z" fill="#F8F0E5"/>
<path d="M65.6543 30.9966C69.3134 30.9743 72.2696 29.171 72.2573 26.9689C72.2449 24.7668 69.2687 22.9998 65.6097 23.0221C61.9506 23.0444 58.9944 24.8477 59.0067 27.0497C59.019 29.2518 61.9953 31.0189 65.6543 30.9966Z" fill="#88C8B0"/>
<path d="M73.7692 23.4435H72.2381C71.9948 23.2345 71.7229 23.0403 71.4081 22.8462C68.2457 20.9347 63.0514 20.9497 59.8747 22.8761C59.5742 23.0553 59.3166 23.2494 59.0734 23.4435H57.4707V26.5945H57.485C57.5709 27.7743 58.3436 28.9242 59.8318 29.8202C62.9942 31.7317 68.1885 31.7167 71.3652 29.7903C72.8391 28.8943 73.6261 27.7593 73.7406 26.5796H73.7692V23.4435Z" fill="#23322D"/>
<path d="M65.6587 28.4289C70.1633 28.4014 73.8028 26.1794 73.7876 23.466C73.7724 20.7525 70.1083 18.5751 65.6037 18.6026C61.099 18.6301 57.4596 20.852 57.4748 23.5655C57.49 26.2789 61.154 28.4563 65.6587 28.4289Z" fill="#F8F0E5"/>
<path d="M65.6543 27.5044C69.3134 27.4821 72.2696 25.6788 72.2573 23.4767C72.2449 21.2746 69.2687 19.5076 65.6097 19.5299C61.9506 19.5522 58.9944 21.3555 59.0067 23.5576C59.019 25.7597 61.9953 27.5267 65.6543 27.5044Z" fill="#D05F0D"/>
</svg>
