<svg width="73" height="63" viewBox="0 0 73 63" fill="none" xmlns="http://www.w3.org/2000/svg">
<path d="M29.8772 21.096H28.0988C27.8163 20.819 27.5005 20.5619 27.1349 20.3047C23.4619 17.7727 17.429 17.7924 13.7394 20.3443C13.3904 20.5816 13.0912 20.8388 12.8087 21.096H10.9473V25.2699H10.9639C11.0636 26.8326 11.9611 28.3558 13.6895 29.5427C17.3625 32.0747 23.3955 32.055 27.085 29.5031C28.7969 28.3162 29.711 26.8128 29.8439 25.2501H29.8772V21.096Z" fill="#23322D"/>
<path d="M20.4493 27.7082C25.6812 27.6718 29.9082 24.7285 29.8906 21.1341C29.8729 17.5398 25.6173 14.6555 20.3854 14.6919C15.1534 14.7283 10.9264 17.6716 10.9441 21.2659C10.9617 24.8603 15.2173 27.7446 20.4493 27.7082Z" fill="#F8F0E5"/>
<path d="M20.4421 26.4786C24.6919 26.449 28.1255 24.0604 28.1111 21.1434C28.0968 18.2264 24.6401 15.8857 20.3903 15.9152C16.1405 15.9448 12.7069 18.3334 12.7212 21.2504C12.7356 24.1674 16.1923 26.5081 20.4421 26.4786Z" fill="#88C8B0"/>
<path d="M29.8791 16.4436H28.1008C27.8183 16.1667 27.5025 15.9095 27.1368 15.6524C23.4639 13.1203 17.4309 13.1401 13.7413 15.6919C13.3923 15.9293 13.0932 16.1865 12.8106 16.4436H10.9492V20.6175H10.9658C11.0656 22.1803 11.963 23.7035 13.6915 24.8904C17.3644 27.4224 23.3974 27.4026 27.087 24.8508C28.7988 23.6639 29.7129 22.1605 29.8459 20.5977H29.8791V16.4436Z" fill="#23322D"/>
<path d="M20.4493 23.0558C25.6812 23.0195 29.9082 20.0762 29.8906 16.4818C29.8729 12.8875 25.6173 10.0032 20.3854 10.0396C15.1534 10.076 10.9264 13.0193 10.9441 16.6136C10.9617 20.208 15.2173 23.0922 20.4493 23.0558Z" fill="#F8F0E5"/>
<path d="M20.4421 21.8262C24.6919 21.7967 28.1255 19.408 28.1111 16.491C28.0968 13.574 24.6401 11.2333 20.3903 11.2629C16.1405 11.2924 12.7069 13.6811 12.7212 16.5981C12.7356 19.5151 16.1923 21.8558 20.4421 21.8262Z" fill="#88C8B0"/>
<path d="M29.8791 11.8108H28.1008C27.8183 11.5339 27.5025 11.2767 27.1368 11.0195C23.4639 8.4875 17.4309 8.50729 13.7413 11.0591C13.3923 11.2965 13.0932 11.5536 12.8106 11.8108H10.9492V15.9847H10.9658C11.0656 17.5475 11.963 19.0706 13.6915 20.2575C17.3644 22.7896 23.3974 22.7698 27.087 20.218C28.7988 19.0311 29.7129 17.5277 29.8459 15.9649H29.8791V11.8108Z" fill="#23322D"/>
<path d="M20.4493 18.423C25.6812 18.3866 29.9082 15.4433 29.8906 11.849C29.8729 8.25464 25.6173 5.37036 20.3854 5.40675C15.1534 5.44315 10.9264 8.38645 10.9441 11.9808C10.9617 15.5751 15.2173 18.4594 20.4493 18.423Z" fill="#F8F0E5"/>
<path d="M20.4421 17.1934C24.6919 17.1639 28.1255 14.7752 28.1111 11.8582C28.0968 8.94122 24.6401 6.6005 20.3903 6.63006C16.1405 6.65963 12.7069 9.04828 12.7212 11.9653C12.7356 14.8823 16.1923 17.223 20.4421 17.1934Z" fill="#88C8B0"/>
<path d="M29.8791 7.18581H28.1008C27.8183 6.90887 27.5025 6.65171 27.1368 6.39455C23.4639 3.8625 17.4309 3.88228 13.7413 6.43411C13.3923 6.67149 13.0932 6.92865 12.8106 7.18581H10.9492V11.3597H10.9658C11.0656 12.9225 11.963 14.4456 13.6915 15.6325C17.3644 18.1646 23.3974 18.1448 27.087 15.593C28.7988 14.4061 29.7129 12.9027 29.8459 11.3399H29.8791V7.18581Z" fill="#23322D"/>
<path d="M20.4493 13.798C25.6812 13.7616 29.9082 10.8183 29.8906 7.22399C29.8729 3.62964 25.6173 0.745358 20.3854 0.781754C15.1534 0.818151 10.9264 3.76145 10.9441 7.35579C10.9617 10.9501 15.2173 13.8344 20.4493 13.798Z" fill="#F8F0E5"/>
<path d="M20.4421 12.5684C24.6919 12.5389 28.1255 10.1502 28.1111 7.23321C28.0968 4.31622 24.6401 1.9755 20.3903 2.00506C16.1405 2.03463 12.7069 4.42328 12.7212 7.34027C12.7356 10.2573 16.1923 12.598 20.4421 12.5684Z" fill="#D05F0D"/>
<path d="M40.6937 17.8906L12.7227 37.1183L40.9097 56.5042L68.9639 37.237L40.6937 17.8906Z" fill="#F1F9F6"/>
<path d="M40.943 59.6682L12.7227 40.2822V37.1172L40.9097 56.5031L40.943 59.6682Z" fill="#88C8B0"/>
<path d="M40.9414 59.6706L68.9789 40.4033L68.9623 37.2383L40.9082 56.5055L40.9414 59.6706Z" fill="#23322D"/>
<path d="M63.9004 49.845C65.8117 51.1704 65.5457 53.4848 63.3187 55.0278C61.0916 56.5708 57.7178 56.7686 55.8066 55.4432C53.8953 54.1376 54.1612 51.8034 56.3883 50.2604C58.6153 48.7175 61.9891 48.5197 63.9004 49.845ZM61.5071 54.4343L61.8894 54.6915L62.6539 54.1574L62.2716 53.8805L62.6539 53.6233V52.654L61.906 52.1397L61.2412 52.0012L58.715 52.6936L58.4823 52.6342L58.3494 52.5353V52.2782L59.2967 51.6254L60.2274 51.3089L59.7122 50.5967L58.6485 50.9528L58.3328 51.1704L57.9505 50.8934L57.186 51.4276L57.5683 51.7045L57.186 51.9617V52.9309L57.9339 53.4453L58.5987 53.5837L61.1249 52.8914L61.3409 52.9507L61.4739 53.0496V53.3068L60.51 53.9596L59.5792 54.2761L60.0945 54.9882L61.1581 54.6322L61.5071 54.4343Z" fill="#278704"/>
<path d="M63.2843 43.8555L72.608 50.2647L56.437 61.4413L47.1133 55.0321L63.2843 43.8555ZM57.9327 59.2455L69.3173 51.3725C68.3533 50.7197 68.2868 49.7108 69.1344 49.1174C69.1677 49.0976 69.2175 49.0778 69.2674 49.0382L65.0294 46.1303C64.9961 46.1699 64.9629 46.1897 64.9296 46.2095C64.082 46.8029 62.6195 46.7436 61.6722 46.0908L50.2877 53.9836C51.235 54.6364 51.3181 55.6453 50.4705 56.219L54.6753 59.1071C55.5229 58.5334 56.9854 58.5927 57.9327 59.2455Z" fill="white"/>
<path d="M59.6922 50.6211L60.2074 51.3332L59.2767 51.6497L58.3294 52.3025V52.5597L58.4624 52.6586L58.6784 52.7179L61.2212 52.0256L61.886 52.1641L62.6339 52.6784V53.6477L62.2683 53.9048L62.6505 54.1818L61.886 54.6961L61.5038 54.4389L61.188 54.6565L60.1077 55.0126L59.5925 54.3202L60.5398 53.984L61.4871 53.3312V53.074L61.3542 52.9751L61.1215 52.9158L58.5953 53.6081L57.9305 53.4696L57.1826 52.9553L57.166 51.986L57.5483 51.7289L57.166 51.4519L57.9305 50.9376L58.3128 51.1948L58.6286 50.9772L59.6922 50.6211Z" fill="#8ECC37"/>
<path d="M69.302 51.3671L57.9341 59.2402C56.9868 58.5874 55.5243 58.528 54.6767 59.1215L50.4719 56.2334C51.3195 55.6399 51.2364 54.6509 50.2891 53.9981L61.6736 46.125C62.6209 46.7778 64.0834 46.8371 64.9311 46.2437C64.9643 46.2239 64.9975 46.1843 65.0308 46.1646L69.2688 49.0725C69.2189 49.0922 69.1857 49.112 69.1358 49.1516C68.2716 49.7055 68.3547 50.7143 69.302 51.3671ZM55.8068 55.4421C57.7181 56.7675 61.0919 56.5697 63.3189 55.0267C65.5626 53.4837 65.8119 51.1693 63.9006 49.8439C61.9894 48.5384 58.6156 48.7164 56.3885 50.2593C54.1615 51.8023 53.8955 54.1168 55.8068 55.4421Z" fill="#8ECC37"/>
<path d="M56.4203 61.4207V62.5285L47.1133 56.1192V55.0312L56.4203 61.4207Z" fill="#045137"/>
<path d="M72.587 50.2422V51.35L56.416 62.5265V61.4188L72.587 50.2422Z" fill="#23322D"/>
<path d="M63.9023 48.0442C65.8136 49.3696 65.5643 51.684 63.3206 53.227C61.0936 54.77 57.7198 54.9678 55.8085 53.6424C53.8972 52.3368 54.1632 50.0026 56.3902 48.4597C58.6339 46.9167 61.9911 46.7189 63.9023 48.0442ZM61.5091 52.6336L61.8913 52.8907L62.6559 52.3566L62.2736 52.0995L62.6559 51.8423V50.873L61.908 50.3587L61.2432 50.2202L58.717 50.9126L58.5009 50.8532L58.368 50.7543V50.4972L59.3153 49.8444L60.246 49.5279L59.7308 48.8157L58.6671 49.1718L58.3513 49.3894L57.9691 49.1124L57.2046 49.6466L57.5868 49.9235L57.2046 50.1806V51.1499L57.9525 51.6643L58.6173 51.8027L61.1435 51.1104L61.3595 51.1697L61.4925 51.2686V51.5258L60.5285 52.1786L59.5978 52.4951L60.113 53.2072L61.1767 52.8512L61.5091 52.6336Z" fill="#278704"/>
<path d="M63.2843 42.0547L72.608 48.4639L56.437 59.6405L47.1133 53.2313L63.2843 42.0547ZM57.9327 57.4448L69.3173 49.5717C68.3533 48.9189 68.2868 47.91 69.1344 47.3166C69.1677 47.2968 69.2175 47.277 69.2674 47.2375L65.0294 44.3296C64.9961 44.3691 64.9629 44.3889 64.9296 44.4087C64.082 45.0021 62.6195 44.9428 61.6722 44.29L50.2877 52.1829C51.235 52.8357 51.3181 53.8445 50.4705 54.4182L54.6753 57.3063C55.5229 56.7326 56.9854 56.792 57.9327 57.4448Z" fill="white"/>
<path d="M59.6942 48.8203L60.2094 49.5325L59.2787 49.849L58.3314 50.5017V50.7589L58.4643 50.8578L58.6804 50.9172L61.2232 50.2248L61.888 50.3633L62.6359 50.8776V51.8469L62.2702 52.1041L62.6525 52.381L61.888 52.9151L61.5057 52.6382L61.1899 52.8558L60.1097 53.2118L59.6111 52.5195L60.5418 52.1832L61.4891 51.5304V51.2732L61.3561 51.1743L61.1235 51.115L58.5973 51.8073L57.9325 51.6689L57.1846 51.1545V50.1852L57.5502 49.9281L57.168 49.6511L57.9325 49.1368L58.3147 49.394L58.6305 49.1764L59.6942 48.8203Z" fill="#8ECC37"/>
<path d="M69.302 49.5741L57.9341 57.4472C56.9868 56.7944 55.5243 56.7351 54.6767 57.3285L50.4719 54.4404C51.3195 53.847 51.2364 52.8579 50.2891 52.2051L61.6736 44.332C62.6209 44.9848 64.0834 45.0442 64.9311 44.4507C64.9643 44.4309 64.9975 44.3914 65.0308 44.3716L69.2688 47.2795C69.2189 47.2993 69.1857 47.3191 69.1358 47.3586C68.2716 47.9125 68.3547 48.9214 69.302 49.5741ZM55.8068 53.6492C57.7181 54.9745 61.0919 54.7767 63.3189 53.2337C65.5626 51.6908 65.8119 49.3763 63.9006 48.051C61.9894 46.7454 58.6156 46.9234 56.3885 48.4664C54.1615 50.0093 53.8955 52.3238 55.8068 53.6492Z" fill="#8ECC37"/>
<path d="M56.4203 59.6319V60.7199L47.1133 54.3304V53.2227L56.4203 59.6319Z" fill="#045137"/>
<path d="M72.587 48.4414V49.5492L56.416 60.7258V59.6378L72.587 48.4414Z" fill="#23322D"/>
<path d="M63.9023 46.2474C65.8136 47.5727 65.5643 49.8872 63.3206 51.4301C61.0936 52.9731 57.7198 53.1709 55.8085 51.8455C53.8972 50.54 54.1632 48.2057 56.3902 46.6628C58.6339 45.1198 61.9911 44.922 63.9023 46.2474ZM61.5091 50.8367L61.8913 51.0939L62.6559 50.5597L62.2736 50.3026L62.6559 50.0454V49.0761L61.908 48.5618L61.2432 48.4233L58.717 49.1157L58.5009 49.0564L58.368 48.9574V48.7003L59.3153 48.0475L60.246 47.731L59.7308 47.0188L58.6671 47.3749L58.3513 47.5925L57.9691 47.3156L57.2046 47.8497L57.5868 48.1266L57.2046 48.3838V49.3531L57.9525 49.8674L58.6173 50.0059L61.1435 49.3135L61.3595 49.3729L61.4925 49.4718V49.7289L60.5285 50.3817L59.5978 50.6982L60.113 51.4104L61.1767 51.0543L61.5091 50.8367Z" fill="#278704"/>
<path d="M63.2843 40.25L72.608 46.6592L56.437 57.8358L47.1133 51.4266L63.2843 40.25ZM57.9327 55.6401L69.3173 47.767C68.3533 47.1142 68.2868 46.1053 69.1344 45.5119C69.1677 45.4921 69.2175 45.4723 69.2674 45.4328L65.0294 42.5249C64.9961 42.5644 64.9629 42.5842 64.9296 42.604C64.082 43.1975 62.6195 43.1381 61.6722 42.4853L50.2877 50.3782C51.235 51.031 51.3181 52.0398 50.4705 52.6135L54.6753 55.5016C55.5229 54.9279 56.9854 54.9873 57.9327 55.6401Z" fill="white"/>
<path d="M59.6922 47.0156L60.2074 47.7278L59.2767 48.0443L58.3294 48.6971V48.9542L58.4624 49.0531L58.6784 49.1125L61.2212 48.4201L61.886 48.5586L62.6339 49.0729V50.0422L62.2683 50.2994L62.6505 50.5763L61.886 51.1104L61.5038 50.8335L61.188 51.0511L60.1077 51.4071L59.6091 50.7148L60.5398 50.3983L61.4871 49.7257V49.4685L61.3542 49.3696L61.1215 49.3301L58.5953 50.0026L57.9305 49.8642L57.1826 49.3499V48.3806L57.5483 48.1234L57.166 47.8662L57.9305 47.3321L58.3128 47.5893L58.6286 47.3717L59.6922 47.0156Z" fill="#8ECC37"/>
<path d="M69.302 47.7695L57.9341 55.6425C56.9868 54.9897 55.5243 54.9304 54.6767 55.5238L50.4719 52.6357C51.3195 52.0423 51.2364 51.0532 50.2891 50.4004L61.6736 42.5273C62.6209 43.1801 64.0834 43.2395 64.9311 42.646C64.9643 42.6262 64.9975 42.5867 65.0308 42.5669L69.2688 45.4748C69.2189 45.4946 69.1857 45.5144 69.1358 45.5539C68.2716 46.1078 68.3547 47.1167 69.302 47.7695ZM55.8068 51.8445C57.7181 53.1698 61.0919 52.972 63.3189 51.4291C65.5626 49.8861 65.8119 47.5716 63.9006 46.2463C61.9894 44.9407 58.6156 45.1187 56.3885 46.6617C54.1615 48.2047 53.8955 50.5191 55.8068 51.8445Z" fill="#8ECC37"/>
<path d="M56.4203 57.8428V58.9308L47.1133 52.5414V51.4336L56.4203 57.8428Z" fill="#045137"/>
<path d="M72.587 46.6445V47.7523L56.416 58.9289V57.8409L72.587 46.6445Z" fill="#23322D"/>
<path d="M63.9004 44.4466C65.8117 45.772 65.5457 48.0864 63.3187 49.6294C61.0916 51.1723 57.7178 51.3701 55.8066 50.0448C53.8953 48.7392 54.1612 46.405 56.3883 44.862C58.6153 43.319 61.9891 43.1212 63.9004 44.4466ZM61.5071 49.0359L61.8894 49.2931L62.6539 48.759L62.2716 48.5018L62.6539 48.2447V47.2754L61.906 46.761L61.2412 46.6226L58.715 47.3149L58.4823 47.2556L58.3494 47.1567V46.8995L59.2967 46.2467L60.2274 45.9302L59.7122 45.2181L58.6485 45.5741L58.3328 45.7917L57.9505 45.5148L57.186 46.0489L57.5683 46.3258L57.186 46.583V47.5523L57.9339 48.0666L58.5987 48.2051L61.1249 47.5127L61.3409 47.5721L61.4739 47.671V47.9281L60.51 48.5809L59.5792 48.8974L60.0945 49.6096L61.1581 49.2535L61.5071 49.0359Z" fill="#278704"/>
<path d="M63.2843 38.4492L72.608 44.8584L56.437 56.035L47.1133 49.6258L63.2843 38.4492ZM57.9327 53.8393L69.3173 45.9662C68.3533 45.3134 68.2868 44.3046 69.1344 43.7111C69.1677 43.6913 69.2175 43.6716 69.2674 43.632L65.0294 40.7241C64.9961 40.7637 64.9629 40.7834 64.9296 40.8032C64.082 41.3967 62.6195 41.3373 61.6722 40.6845L50.2877 48.5774C51.235 49.2302 51.3181 50.239 50.4705 50.8127L54.6753 53.7008C55.5229 53.1271 56.9854 53.1865 57.9327 53.8393Z" fill="white"/>
<path d="M59.6942 45.2148L60.2094 45.927L59.2787 46.2435L58.3314 46.8963V47.1534L58.4643 47.2523L58.6804 47.3117L61.2232 46.6193L61.888 46.7578L62.6359 47.2721V48.2414L62.2702 48.4986L62.6525 48.7755L61.888 49.3096L61.5057 49.0327L61.1899 49.2503L60.1097 49.6261L59.5945 48.914L60.5418 48.5975L61.4891 47.9249V47.6678L61.3561 47.5689L61.1235 47.5293L58.5973 48.2019L57.9325 48.0634L57.1846 47.5491L57.168 46.5798L57.5502 46.3226L57.168 46.0655L57.9325 45.5314L58.3147 45.7885L58.6305 45.5709L59.6942 45.2148Z" fill="#8ECC37"/>
<path d="M69.302 45.9687L57.9341 53.8417C56.9868 53.189 55.5243 53.1296 54.6767 53.7231L50.4719 50.8349C51.3195 50.2415 51.2364 49.2524 50.2891 48.5996L61.6736 40.7266C62.6209 41.3794 64.0834 41.4387 64.9311 40.8453C64.9643 40.8255 64.9975 40.7859 65.0308 40.7661L69.2688 43.674C69.2189 43.6938 69.1857 43.7136 69.1358 43.7531C68.2716 44.307 68.3547 45.3159 69.302 45.9687ZM55.8068 50.0437C57.7181 51.369 61.0919 51.1712 63.3189 49.6283C65.5626 48.0853 65.8119 45.7709 63.9006 44.4455C61.9894 43.1399 58.6156 43.3179 56.3885 44.8609C54.1615 46.4039 53.8955 48.7183 55.8068 50.0437Z" fill="#8ECC37"/>
<path d="M56.4203 56.0342V57.1222L47.1133 50.7328V49.625L56.4203 56.0342Z" fill="#045137"/>
<path d="M72.587 44.8359V45.9437L56.416 57.1203V56.0323L72.587 44.8359Z" fill="#23322D"/>
<path d="M63.9023 42.6419C65.8136 43.9673 65.5643 46.2817 63.3206 47.8247C61.0936 49.3676 57.7198 49.5655 55.8085 48.2401C53.8972 46.9345 54.1632 44.6003 56.3902 43.0573C58.6339 41.5144 61.9911 41.3165 63.9023 42.6419ZM61.5091 47.2312L61.8913 47.4884L62.6559 46.9543L62.2736 46.6971L62.6559 46.44V45.4707L61.908 44.9563L61.2432 44.8179L58.717 45.5102L58.5009 45.4509L58.368 45.352V45.0948L59.3153 44.442L60.246 44.1255L59.7308 43.4134L58.6671 43.7695L58.3513 43.987L57.9691 43.7101L57.2046 44.2442L57.5868 44.5211L57.2046 44.7783V45.7476L57.9525 46.2619L58.6173 46.4004L61.1435 45.708L61.3595 45.7674L61.4925 45.8663V46.1235L60.5285 46.7763L59.5978 47.0928L60.113 47.8049L61.1767 47.4488L61.5091 47.2312Z" fill="#278704"/>
<path d="M63.2843 36.6523L72.608 43.0616L56.437 54.2382L47.1133 47.8289L63.2843 36.6523ZM57.9327 52.0424L69.3173 44.1693C68.3533 43.5166 68.2868 42.5077 69.1344 41.9142C69.1677 41.8945 69.2175 41.8747 69.2674 41.8351L65.0294 38.9272C64.9961 38.9668 64.9629 38.9866 64.9296 39.0063C64.082 39.5998 62.6195 39.5405 61.6722 38.8877L50.2877 46.7805C51.235 47.4333 51.3181 48.4422 50.4705 49.0158L54.6753 51.9039C55.5229 51.3303 56.9854 51.3896 57.9327 52.0424Z" fill="white"/>
<path d="M59.6942 43.418L60.2094 44.1301L59.2787 44.4466L58.3314 45.0994V45.3566L58.4643 45.4555L58.6804 45.5148L61.2232 44.8225L61.888 44.9609L62.6359 45.4753V46.4445L62.2702 46.7017L62.6525 46.9787L61.888 47.5128L61.5057 47.2358L61.1899 47.4534L60.1097 47.8293L59.6111 47.1171L60.5418 46.8006L61.4891 46.128V45.8709L61.3561 45.772L61.1235 45.7324L58.5973 46.405L57.9325 46.2665L57.1846 45.7522V44.7829L57.5502 44.5257L57.168 44.2686L57.9325 43.7345L58.3147 43.9916L58.6305 43.7938L59.6942 43.418Z" fill="#8ECC37"/>
<path d="M69.302 44.1757L57.9341 52.0488C56.9868 51.396 55.5243 51.3366 54.6767 51.9301L50.4719 49.042C51.3195 48.4485 51.2364 47.4594 50.2891 46.8067L61.6736 38.9336C62.6209 39.5864 64.0834 39.6457 64.9311 39.0523C64.9643 39.0325 64.9975 38.9929 65.0308 38.9732L69.2688 41.881C69.2189 41.9008 69.1857 41.9206 69.1358 41.9602C68.2716 42.5141 68.3547 43.5229 69.302 44.1757ZM55.8068 48.2507C57.7181 49.5761 61.0919 49.3783 63.3189 47.8353C65.5626 46.2923 65.8119 43.9779 63.9006 42.6525C61.9894 41.3469 58.6156 41.525 56.3885 43.0679C54.1615 44.6109 53.8955 46.9253 55.8068 48.2507Z" fill="#8ECC37"/>
<path d="M56.4203 54.2413V55.3292L47.1133 48.9398V47.832L56.4203 54.2413Z" fill="#045137"/>
<path d="M72.587 43.0391V44.1468L56.416 55.3234V54.2354L72.587 43.0391Z" fill="#23322D"/>
<path d="M63.9023 40.845C65.8136 42.1704 65.5643 44.4848 63.3206 46.0278C61.0936 47.5708 57.7198 47.7686 55.8085 46.4432C53.8972 45.1376 54.1632 42.8034 56.3902 41.2604C58.6339 39.7175 61.9911 39.5197 63.9023 40.845ZM61.5091 45.4343L61.8913 45.7113L62.6559 45.1772L62.2736 44.92L62.6559 44.6629V43.6936L61.908 43.1792L61.2432 43.0408L58.717 43.7331L58.5009 43.6738L58.368 43.5749V43.3177L59.3153 42.6649L60.246 42.3484L59.7308 41.6363L58.6671 41.9924L58.3513 42.21L57.9691 41.933L57.2046 42.4671L57.5868 42.7441L57.2046 43.0012V43.9705L57.9525 44.4848L58.6173 44.6233L61.1435 43.9309L61.3595 43.9903L61.4925 44.0892V44.3464L60.5285 44.9992L59.5978 45.3157L60.113 46.0278L61.1767 45.6717L61.5091 45.4343Z" fill="#278704"/>
<path d="M63.2843 34.8555L72.608 41.2647L56.437 52.4413L47.1133 46.0321L63.2843 34.8555ZM57.9327 50.2455L69.3173 42.3725C68.3533 41.7197 68.2868 40.7108 69.1344 40.1174C69.1677 40.0976 69.2175 40.0778 69.2674 40.0382L65.0294 37.1501C64.9961 37.1897 64.9629 37.2095 64.9296 37.2293C64.082 37.8227 62.6195 37.7634 61.6722 37.1106L50.2877 44.9836C51.235 45.6364 51.3181 46.6453 50.4705 47.219L54.6753 50.1071C55.5229 49.5334 56.9854 49.5927 57.9327 50.2455Z" fill="white"/>
<path d="M59.6942 41.6211L60.2094 42.3332L59.2787 42.6497L58.3314 43.3025V43.5795L58.4643 43.6586L58.6804 43.7179L61.2232 43.0256L61.888 43.1641L62.6359 43.6784V44.6477L62.2702 44.9048L62.6525 45.1818L61.888 45.7159L61.5057 45.4389L61.1899 45.6565L60.1097 46.0324L59.6111 45.3202L60.5418 45.0037L61.4891 44.3312V44.074L61.3561 43.9751L61.1235 43.9355L58.5973 44.6279L57.9325 44.4696L57.1846 43.9553V42.986L57.5502 42.7289L57.168 42.4717L57.9325 41.9376L58.3147 42.1948L58.6305 41.9969L59.6942 41.6211Z" fill="#8ECC37"/>
<path d="M69.302 42.3671L57.9341 50.2402C56.9868 49.5874 55.5243 49.528 54.6767 50.1215L50.4719 47.2334C51.3195 46.6399 51.2364 45.6509 50.2891 44.9981L61.6736 37.125C62.6209 37.7778 64.0834 37.8371 64.9311 37.2437C64.9643 37.2239 64.9975 37.1843 65.0308 37.1646L69.2688 40.0725C69.2189 40.0922 69.1857 40.112 69.1358 40.1516C68.2716 40.7055 68.3547 41.7143 69.302 42.3671ZM55.8068 46.4421C57.7181 47.7675 61.0919 47.5697 63.3189 46.0267C65.5626 44.4837 65.8119 42.1693 63.9006 40.8439C61.9894 39.5384 58.6156 39.7164 56.3885 41.2593C54.1615 42.8023 53.8955 45.1168 55.8068 46.4421Z" fill="#8ECC37"/>
<path d="M56.4203 52.4405V53.5285L47.1133 47.139V46.0312L56.4203 52.4405Z" fill="#045137"/>
<path d="M72.587 41.25V42.3578L56.416 53.5344V52.4464L72.587 41.25Z" fill="#23322D"/>
<path d="M63.9023 39.0481C65.8136 40.3735 65.5477 42.688 63.3206 44.2309C61.0936 45.7739 57.7198 45.9717 55.8085 44.6463C53.8972 43.3407 54.1632 41.0065 56.3902 39.4636C58.6173 37.9206 61.9911 37.7228 63.9023 39.0481ZM61.5091 43.6375L61.8913 43.9144L62.6559 43.3803L62.2736 43.1232L62.6559 42.866V41.8967L61.908 41.3824L61.2432 41.2439L58.717 41.9363L58.4843 41.8769L58.3513 41.778V41.5208L59.2987 40.868L60.2294 40.5515L59.7142 39.8394L58.6505 40.1955L58.3347 40.4131L57.9525 40.1361L57.188 40.6702L57.5702 40.9472L57.188 41.2043V42.1736L57.9358 42.688L58.6006 42.8264L61.1268 42.1341L61.3429 42.1934L61.4758 42.2923V42.5495L60.5119 43.2023L59.5812 43.5188L60.0964 44.2309L61.1601 43.8749L61.5091 43.6375Z" fill="#278704"/>
<path d="M63.2843 33.0547L72.608 39.4639L56.437 50.6405L47.1133 44.2313L63.2843 33.0547ZM57.9327 48.4448L69.3173 40.5717C68.3533 39.9189 68.2868 38.91 69.1344 38.3166C69.1677 38.2968 69.2175 38.277 69.2674 38.2375L65.0294 35.3296C64.9961 35.3691 64.9629 35.3889 64.9296 35.4087C64.082 36.0021 62.6195 35.9428 61.6722 35.29L50.2877 43.2026C51.235 43.8554 51.3181 44.8643 50.4705 45.438L54.6753 48.3261C55.5229 47.7524 56.9854 47.792 57.9327 48.4448Z" fill="white"/>
<path d="M59.6942 39.8203L60.2094 40.5325L59.2787 40.849L58.3314 41.5017V41.7787L58.4643 41.8578L58.6804 41.9172L61.2232 41.2248L61.888 41.3633L62.6359 41.8776V42.8469L62.2702 43.1238L62.6525 43.381L61.888 43.9151L61.5057 43.6382L61.1899 43.8558L60.1097 44.2316L59.5945 43.5195L60.5418 43.203L61.4891 42.5304V42.2732L61.3561 42.1743L61.1235 42.1348L58.5973 42.8271L57.9325 42.6689L57.1846 42.1545L57.168 41.1852L57.5502 40.9281L57.168 40.6709L57.9325 40.1368L58.3147 40.394L58.6305 40.1962L59.6942 39.8203Z" fill="#8ECC37"/>
<path d="M69.302 40.5741L57.9341 48.4472C56.9868 47.7944 55.5243 47.7351 54.6767 48.3285L50.4719 45.4404C51.3195 44.847 51.2364 43.8579 50.2891 43.2051L61.6736 35.332C62.6209 35.9848 64.0834 36.0442 64.9311 35.4507C64.9643 35.4309 64.9975 35.3914 65.0308 35.3716L69.2688 38.2795C69.2189 38.2993 69.1857 38.3191 69.1358 38.3586C68.2716 38.9323 68.3547 39.9214 69.302 40.5741ZM55.8068 44.6492C57.7181 45.9745 61.0919 45.7767 63.3189 44.2337C65.5626 42.6908 65.8119 40.3763 63.9006 39.051C61.9894 37.7454 58.6156 37.9234 56.3885 39.4664C54.1615 41.0093 53.8955 43.3238 55.8068 44.6492Z" fill="#8ECC37"/>
<path d="M56.4203 50.6436V51.7316L47.1133 45.3421V44.2344L56.4203 50.6436Z" fill="#045137"/>
<path d="M72.587 39.4648V40.5528L56.416 51.7294V50.6414L72.587 39.4648Z" fill="#23322D"/>
<path d="M63.2843 31.25L72.608 37.6592L56.437 48.8358L47.1133 42.4266L63.2843 31.25ZM57.9327 46.6401L69.3173 38.767C68.3533 38.1142 68.2868 37.1053 69.1344 36.5119C69.1677 36.4921 69.2175 36.4723 69.2674 36.4328L65.0294 33.5249C64.9961 33.5644 64.9629 33.5842 64.9296 33.604C64.082 34.1975 62.6195 34.1381 61.6722 33.4853L50.2877 41.3979C51.235 42.0507 51.3181 43.0596 50.4705 43.6333L54.6753 46.5214C55.5229 45.9477 56.9854 45.9873 57.9327 46.6401Z" fill="#045137"/>
<path d="M63.8984 37.2471C61.9872 35.9415 58.6133 36.1195 56.3863 37.6625C54.1593 39.2054 53.8933 41.5199 55.8046 42.8453C57.7159 44.1706 61.0897 43.9728 63.3167 42.4298C65.5604 40.8869 65.8263 38.5724 63.8984 37.2471ZM60.2088 38.7307L59.2781 39.0472L58.3308 39.7V39.9572L58.4638 40.0561L58.6798 40.1154L58.4472 40.0561L58.3142 39.9572V39.7L59.2615 39.0472L60.2088 38.7307Z" fill="white"/>
<path d="M62.9386 37.9174C61.4761 36.9086 58.9333 37.0668 57.2215 38.2339C55.5262 39.401 55.3268 41.1814 56.7727 42.1705C58.2353 43.1793 60.7781 43.0211 62.4899 41.854C64.1851 40.6868 64.3846 38.9263 62.9386 37.9174Z" fill="#97D6C3"/>
<path d="M69.302 38.7656L57.9341 46.6386C56.9868 45.9858 55.5243 45.9265 54.6767 46.5199L50.4719 43.6318C51.3195 43.0384 51.2364 42.0493 50.2891 41.3965L61.6736 33.5234C62.6209 34.1762 64.0834 34.2356 64.9311 33.6421C64.9643 33.6223 64.9975 33.5828 65.0308 33.563L69.2688 36.4709C69.2189 36.4907 69.1857 36.5105 69.1358 36.55C68.2716 37.1237 68.3547 38.1128 69.302 38.7656ZM55.8068 42.8406C57.7181 44.1659 61.0919 43.9681 63.3189 42.4251C65.5626 40.8822 65.8119 38.5677 63.9006 37.2424C61.9894 35.9368 58.6156 36.1148 56.3885 37.6578C54.1615 39.2007 53.8955 41.535 55.8068 42.8406Z" fill="white"/>
<path d="M56.4203 48.8389V49.9269L47.1133 43.5375V42.4297L56.4203 48.8389Z" fill="#045137"/>
<path d="M72.587 37.6602V38.7481L56.416 49.9247V48.8367L72.587 37.6602Z" fill="#23322D"/>
<path opacity="0.5" d="M34.9094 30.4531L5.25977 50.8875L15.9961 58.266C17.8077 59.5123 20.0347 59.5123 21.8296 58.266L48.5708 39.8494L34.9094 30.4531Z" fill="url(#paint0_linear_2125_61588)"/>
<path d="M2.54845 48.2528C1.15239 47.323 0.271545 45.2855 0.271545 42.3776C0.254925 36.6212 3.64535 29.579 7.83353 26.6711L10.8583 24.5742L11.0079 24.6731L24.8521 33.9507L21.3454 36.6608L20.0324 37.8081L18.2209 40.0632L17.9217 40.3797L15.9938 43.8613L15.2792 46.0372L14.7473 47.778L14.3152 51.4178L14.282 51.7343L14.4316 53.2575L14.8969 55.1565L15.5285 56.4423L16.4426 57.7281L2.54845 48.2528Z" fill="#D05F0D"/>
<path d="M34.7219 28.4297V29.0429L17.6035 40.8327C17.7531 40.4173 18.0522 40.0613 18.3514 39.7052L34.7219 28.4297Z" fill="#D4ECFF"/>
<path d="M48.5686 37.9051L34.7244 28.4297L18.4038 39.8634L17.3567 41.3273L15.7778 44.611L14.7973 47.9145L14.4649 50.4861L14.4316 53.0577L15.7778 56.7371L17.5395 57.9636L19.3511 58.0823L21.5117 57.0141L46.5909 39.5469L48.5686 37.9051Z" fill="#FCF8F2"/>
<path d="M2.56394 48.2563C1.38394 47.4848 0.586192 45.9221 0.353516 43.7461L14.4803 53.3797L14.8958 55.1601L15.5273 56.4459L16.4414 57.7317L2.56394 48.2563Z" fill="#D05F0D"/>
<path d="M48.568 38.5227V37.9094L21.7271 56.425C17.7883 59.1549 14.564 56.9591 14.564 51.539C14.5474 46.1188 17.7384 39.492 21.6773 36.7621L24.835 34.5664V33.9531L21.6773 36.1489C17.4891 39.037 14.0987 46.0792 14.1153 51.8555C14.1319 57.6119 17.539 59.9461 21.7271 57.058L48.568 38.5227Z" fill="#23322D"/>
<path d="M39.5912 39.1757L33.3588 34.8633L32.9766 35.1204L39.209 39.4526L39.5912 39.1757Z" fill="#D05F0D"/>
<path d="M39.4251 36.7219L35.0707 33.6953L34.6719 33.9525L39.0262 36.9791L39.4251 36.7219Z" fill="#D05F0D"/>
<path d="M37.9792 36.8807L34.2231 34.2695L33.8242 34.5465L37.5969 37.1576L37.9792 36.8807Z" fill="#D05F0D"/>
<path d="M40.4566 38.6025L38.5619 37.2969L38.1797 37.554L40.0577 38.8596L40.4566 38.6025Z" fill="#D05F0D"/>
<path d="M24.0883 49.2267L17.8559 44.8945L17.457 45.1517L23.6894 49.4839L24.0883 49.2267Z" fill="#D05F0D"/>
<path d="M23.9212 46.7531L19.5668 43.7266L19.168 44.0035L23.5223 47.0103L23.9212 46.7531Z" fill="#D05F0D"/>
<path d="M22.4733 46.9317L18.7006 44.3008L18.3184 44.5777L22.0744 47.1889L22.4733 46.9317Z" fill="#D05F0D"/>
<path d="M24.9302 48.6337L23.0522 47.3281L22.6699 47.6051L24.548 48.9107L24.9302 48.6337Z" fill="#D05F0D"/>
<path d="M33.0823 39.3323H32.2181C32.0852 39.1938 31.919 39.0751 31.7528 38.9564C29.9744 37.73 27.0328 37.73 25.2378 38.9762C25.0716 39.0949 24.922 39.2136 24.7891 39.3521H23.875V41.3896H23.8916C23.9415 42.1413 24.3736 42.893 25.2212 43.4666C26.9995 44.6931 29.9412 44.6931 31.7361 43.4469C32.5671 42.8732 33.0159 42.1413 33.0823 41.3896H33.099V39.3323H33.0823Z" fill="#D05F0D"/>
<path d="M28.4941 42.5403C31.0367 42.5226 33.0908 41.0912 33.0823 39.3432C33.0737 37.5952 31.0056 36.1925 28.463 36.2102C25.9205 36.2278 23.8663 37.6592 23.8749 39.4072C23.8835 41.1552 25.9516 42.558 28.4941 42.5403Z" fill="#F8F0E5"/>
<path d="M26.465 40.1067C26.3985 40.0671 26.3652 39.988 26.3652 39.9286V38.1087C26.3652 37.9702 26.5314 37.8516 26.7309 37.8516C26.9303 37.8516 27.0965 37.9702 27.0965 38.1087V39.6121L30.7695 39.078C30.9689 39.0582 31.1683 39.1374 31.2016 39.2758C31.2514 39.4143 31.1185 39.5528 30.919 39.5726L26.7973 40.166C26.681 40.1858 26.5813 40.166 26.4982 40.1067C26.4816 40.1264 26.4816 40.1067 26.465 40.1067Z" fill="#D05F0D"/>
<defs>
<linearGradient id="paint0_linear_2125_61588" x1="5.2533" y1="44.8322" x2="48.5766" y2="44.8322" gradientUnits="userSpaceOnUse">
<stop stop-opacity="0"/>
<stop offset="0.8942" stop-opacity="0.8942"/>
<stop offset="1"/>
</linearGradient>
</defs>
</svg>
