<svg width="51" height="50" viewBox="0 0 51 50" fill="none" xmlns="http://www.w3.org/2000/svg">
<path d="M0.175781 33.1559L25.49 48.1867L50.8043 33.1559L25.49 18.125L0.175781 33.1559Z" fill="#F1F9F6"/>
<path d="M0.175781 34.548V33.1562L25.49 48.1871V49.5974L0.175781 34.548Z" fill="#88C8B0"/>
<path d="M50.824 33.1562V34.548L25.5098 49.5789V48.1686L50.824 33.1562Z" fill="#23322D"/>
<path d="M2.46875 31.8208L25.4915 45.4784L48.5143 31.8208L25.4915 18.1445L2.46875 31.8208Z" fill="#F1F9F6"/>
<path d="M2.46875 33.0812V31.8008L25.4915 45.4585V46.7389L2.46875 33.0812Z" fill="#88C8B0"/>
<path d="M48.513 31.8164V33.0968L25.4902 46.7545V45.4741L48.513 31.8164Z" fill="#23322D"/>
<path d="M4.56055 30.429L25.4904 42.8434L46.4202 30.429L25.4904 17.9961L4.56055 30.429Z" fill="#F1F9F6"/>
<path d="M4.56055 31.5802V30.4297L25.4904 42.8441V43.9946L4.56055 31.5802Z" fill="#88C8B0"/>
<path d="M46.4201 30.4297V31.5802L25.4902 44.0131V42.8626L46.4201 30.4297Z" fill="#23322D"/>
<path d="M16.3438 33.6193L18.9059 35.1409L21.4679 33.6193L18.9059 32.0977L16.3438 33.6193Z" fill="#F1F9F6"/>
<path d="M16.3438 34.0069V33.6172L18.9059 35.1388V35.5285L16.3438 34.0069Z" fill="#88C8B0"/>
<path d="M21.4488 33.6172V34.0069L18.8867 35.5285V35.1388L21.4488 33.6172Z" fill="#23322D"/>
<path d="M21.4473 36.6623L24.0094 38.1839L26.5715 36.6623L24.0094 35.1406L21.4473 36.6623Z" fill="#F1F9F6"/>
<path d="M21.4473 37.0537V36.6641L24.0094 38.1857V38.5754L21.4473 37.0537Z" fill="#88C8B0"/>
<path d="M26.5543 36.6641V37.0537L23.9922 38.5754V38.1857L26.5543 36.6641Z" fill="#23322D"/>
<path d="M11.2383 30.5959L13.8004 32.1175L16.3625 30.5959L13.8004 29.0742L11.2383 30.5959Z" fill="#F1F9F6"/>
<path d="M11.2383 30.9834V30.5938L13.8004 32.1154V32.5051L11.2383 30.9834Z" fill="#88C8B0"/>
<path d="M16.3629 30.5938V30.9834L13.8008 32.5051V32.1154L16.3629 30.5938Z" fill="#23322D"/>
<path d="M16.793 14.3592L28.9359 7.14062L41.0788 14.3592L28.9359 21.5777L16.793 14.3592Z" fill="#F1F9F6"/>
<path d="M16.793 14.3594V28.7779L28.9359 35.9964V21.5779L16.793 14.3594Z" fill="#88C8B0"/>
<path d="M41.098 14.3594V28.7779L28.9551 35.9964V21.5779L41.098 14.3594Z" fill="#23322D"/>
<path d="M25.5632 26.8287C25.5632 27.0514 25.4189 27.2555 25.1482 27.4225C24.6069 27.7565 23.7048 27.7565 23.1455 27.4225C22.8748 27.2555 22.7305 27.0514 22.7305 26.8287C22.7305 26.606 22.8748 26.4019 23.1455 26.2349C23.6868 25.9009 24.5889 25.9009 25.1482 26.2349C25.4189 26.4019 25.5632 26.606 25.5632 26.8287Z" fill="#F1F9F6"/>
<path d="M25.5632 26.832V36.2959C25.5632 36.5186 25.4189 36.7227 25.1482 36.8897C24.6069 37.2237 23.7048 37.2237 23.1455 36.8897C22.8748 36.7227 22.7305 36.5186 22.7305 36.2959V26.832C22.7305 27.0547 22.8748 27.2588 23.1455 27.4258C23.6868 27.7599 24.5889 27.7599 25.1482 27.4258C25.4189 27.2588 25.5632 27.0547 25.5632 26.832Z" fill="#23322D"/>
<path d="M20.3113 24.0435C20.3113 24.2662 20.1669 24.4703 19.8963 24.6374C19.355 24.9714 18.4528 24.9714 17.8935 24.6374C17.6229 24.4703 17.4785 24.2662 17.4785 24.0435C17.4785 23.8209 17.6229 23.6167 17.8935 23.4497C18.4348 23.1157 19.3369 23.1157 19.8963 23.4497C20.1669 23.6167 20.3113 23.8394 20.3113 24.0435Z" fill="#F1F9F6"/>
<path d="M20.3113 24.043V33.5068C20.3113 33.7295 20.1669 33.9336 19.8963 34.1007C19.355 34.4347 18.4528 34.4347 17.8935 34.1007C17.6229 33.9336 17.4785 33.7295 17.4785 33.5068V24.043C17.4785 24.2656 17.6229 24.4698 17.8935 24.6368C18.4348 24.9708 19.3369 24.9708 19.8963 24.6368C20.1669 24.4883 20.3113 24.2656 20.3113 24.043Z" fill="#23322D"/>
<path d="M15.2038 20.8482C15.2038 21.0709 15.0595 21.275 14.7889 21.442C14.2476 21.7761 13.3454 21.7761 12.7861 21.442C12.5154 21.275 12.3711 21.0709 12.3711 20.8482C12.3711 20.6256 12.5154 20.4214 12.7861 20.2544C13.3274 19.9204 14.2295 19.9204 14.7889 20.2544C15.0595 20.4214 15.2038 20.6256 15.2038 20.8482Z" fill="#F1F9F6"/>
<path d="M15.2038 20.8555V30.3193C15.2038 30.542 15.0595 30.7461 14.7889 30.9132C14.2476 31.2472 13.3454 31.2472 12.7861 30.9132C12.5154 30.7461 12.3711 30.542 12.3711 30.3193V20.8555C12.3711 21.0781 12.5154 21.2823 12.7861 21.4493C13.3274 21.7833 14.2295 21.7833 14.7889 21.4493C15.0595 21.2823 15.2038 21.0596 15.2038 20.8555Z" fill="#23322D"/>
<path d="M4.56055 17.5667L25.4904 29.9811L46.4202 17.5667L25.4904 5.15234L4.56055 17.5667Z" fill="#F1F9F6"/>
<path d="M4.56055 18.7364V17.5859L25.4904 30.0003V31.1508L4.56055 18.7364Z" fill="#88C8B0"/>
<path d="M46.4201 17.5664V18.7169L25.4902 31.1313V29.9808L46.4201 17.5664Z" fill="#23322D"/>
<path d="M5.67969 15.8984V17.4386L25.4908 29.2035V27.6633L5.67969 15.8984Z" fill="#F1F9F6"/>
<path d="M45.3014 15.8984V17.4386L25.4902 29.2035V27.6633L45.3014 15.8984Z" fill="#23322D"/>
<path d="M25.4902 29.2015L27.5471 28.7747L46.4201 17.5665L45.3014 16.8984V17.418L25.4902 29.2015Z" fill="#23322D"/>
<path d="M4.56055 15.2707L25.4904 27.6666V25.848L15.0255 13.0625L4.56055 13.5264V15.2707Z" fill="#88C8B0"/>
<path d="M15.0273 13.0589L35.9572 0.644531L46.4221 13.43L25.4922 25.8444L15.0273 13.0589Z" fill="#23322D"/>
<path d="M4.56055 13.5384L15.0255 13.0745L35.9553 0.660156L25.4904 1.12407L4.56055 13.5384Z" fill="#F1F9F6"/>
<path d="M46.4201 15.2443V13.4258L25.4902 25.8402V27.6587L46.4201 15.2443Z" fill="#23322D"/>
<path d="M24.3881 25.676V26.177L5.1543 14.7647V14.2451L5.76776 14.2266V14.4121L24.0453 25.2492L24.3881 25.676Z" fill="#F1F9F6"/>
<path d="M24.029 25.2522L5.76953 14.4151V14.2295L14.8451 13.8398L24.029 25.2522Z" fill="#F1F9F6"/>
<path d="M24.029 25.2131L5.76953 14.376V14.1905L14.8451 13.8008L24.029 25.2131Z" fill="#88C8B0"/>
</svg>
