<svg width="53" height="37" viewBox="0 0 53 37" fill="none" xmlns="http://www.w3.org/2000/svg">
<g clip-path="url(#clip0_2125_61519)">
<path d="M52.8029 1.97827L12.2648 22.8903L0.980469 15.2372L52.8029 1.97827Z" fill="#D5EFE7"/>
<path d="M23.5969 30.3125L13.873 36.8559L17.1253 25.9885L23.5969 30.3125Z" fill="#23322D"/>
<path d="M12.2637 22.699L13.8405 36.8572L17.1256 25.9898L52.8018 1.97827L12.2637 22.699Z" fill="#045137"/>
<path d="M34.7974 2.76582L32.9413 1.52219C31.6108 0.622952 29.7712 0.756881 27.7508 2.1153C23.6773 4.83215 20.3594 11.5095 20.3594 17.0197C20.3594 19.7939 21.1971 21.7263 22.544 22.6447L24.4 23.8883C23.0532 22.9891 22.2155 21.0376 22.2155 18.2633C22.2155 12.7531 25.517 6.09491 29.6069 3.35893C31.6273 2.00051 33.4669 1.86658 34.7974 2.76582Z" fill="#23322D"/>
<path d="M34.8298 16.8206C37.7001 10.9913 37.6796 4.6975 34.7839 2.76295C31.8883 0.828396 27.214 3.98571 24.3437 9.815C21.4733 15.6443 21.4939 21.9381 24.3896 23.8727C27.2852 25.8072 31.9595 22.6499 34.8298 16.8206Z" fill="#F8F0E5"/>
<path d="M25.3172 10.3997C24.0196 13.0208 23.2969 15.8142 23.2969 18.2632C23.2969 20.4635 23.8718 22.0515 24.923 22.7785C25.9578 23.4864 27.4197 23.276 29.0458 22.2045C30.8526 20.9992 32.5608 18.8946 33.8585 16.2734C35.1561 13.6522 35.8788 10.8588 35.8788 8.40986C35.8788 6.2096 35.3039 4.60245 34.2527 3.89454C33.2179 3.18663 31.756 3.39709 30.1299 4.46852C28.3395 5.65475 26.6148 7.75935 25.3172 10.3997Z" fill="#23322D"/>
<path d="M24.8719 10.0945C23.5743 12.7157 22.8516 15.509 22.8516 17.958C22.8516 20.1583 23.4265 21.7463 24.4777 22.4733C25.5125 23.1813 26.9744 22.9708 28.6005 21.8994C30.4073 20.694 32.1155 18.5894 33.4131 15.9682C34.7108 13.347 35.4335 10.5537 35.4335 8.10468C35.4335 5.90442 34.8586 4.29728 33.8074 3.58937C32.7726 2.88146 31.3107 3.09191 29.6846 4.16335C27.8942 5.36871 26.1695 7.4733 24.8719 10.0945Z" fill="#D05F0D"/>
<path d="M52.8156 1.97827H52.7992L17.123 26.2003L30.0992 34.9822L52.8156 1.97827Z" fill="#D5EFE7"/>
</g>
<defs>
<clipPath id="clip0_2125_61519">
<rect width="51.8388" height="35.9121" fill="white" transform="translate(0.982422 0.941406)"/>
</clipPath>
</defs>
</svg>
