<svg width="100" height="28" viewBox="0 0 100 28" fill="none" xmlns="http://www.w3.org/2000/svg">
<g clip-path="url(#clip0_38_13930)">
<path d="M19.738 27.7593C19.738 27.8993 19.6113 28.0004 19.4713 28.0004C18.2624 28.0004 17.0705 28.0004 15.8747 28.0004C15.3593 28.0004 14.9414 27.5825 14.9414 27.067C14.9414 23.0216 14.9414 18.986 14.9414 14.9196C14.9414 14.7109 15.159 14.573 15.3431 14.6712C16.709 15.4586 18.0748 16.254 19.4407 17.0334C19.6255 17.1378 19.746 17.2342 19.746 17.4833C19.738 20.906 19.738 24.3286 19.738 27.7593Z" fill="#3D3D3D"/>
<path d="M14.394 11.9356C14.394 12.6545 13.6153 13.1037 12.9928 12.7441C11.8992 12.1121 10.8247 11.4914 9.75812 10.8706C9.67778 10.8224 9.60547 10.6858 9.60547 10.5894C9.60547 7.08639 9.60547 3.58338 9.6135 0.0803665C9.6135 0.0346725 9.66842 0.00805664 9.71412 0.00805664C10.9566 0.00805664 12.2041 0.00805664 13.4606 0.00805664C13.9761 0.00805664 14.394 0.425929 14.394 0.941394C14.394 4.59511 14.394 8.24263 14.394 11.9356Z" fill="#3D3D3D"/>
<path d="M16.316 12.755C15.6936 13.1145 14.9148 12.6654 14.9143 11.9467C14.9134 10.6932 14.9145 9.47139 14.9314 8.25357C14.9314 8.10895 15.1001 7.90809 15.2448 7.81971C17.8801 6.28513 20.5234 4.76663 23.1587 3.24008C23.2656 3.1783 23.3719 3.11651 23.4788 3.05431C23.9194 2.79817 24.481 2.95072 24.7362 3.39177C25.2291 4.24329 25.7193 5.09526 26.2182 5.95901C26.4761 6.40547 26.324 6.97672 25.8777 7.23492C22.6979 9.07465 19.5251 10.9017 16.316 12.755Z" fill="#3D3D3D"/>
<path d="M5.16131 25.3453C5.09475 25.3662 5.01601 25.3395 4.98107 25.2791C4.35921 24.2048 3.74177 23.1346 3.11337 22.0455C2.85574 21.599 3.00883 21.0282 3.45532 20.7705C6.88601 18.7908 10.3086 16.8148 13.7773 14.8098C14.0616 14.6455 14.4173 14.8507 14.4173 15.1791C14.4173 16.6815 14.4253 18.1759 14.4092 19.6783C14.4092 19.831 14.3128 20.056 14.1923 20.1202C11.1917 21.8692 8.18314 23.6022 5.18254 25.3352C5.17396 25.3401 5.17076 25.3424 5.16131 25.3453Z" fill="#3D3D3D"/>
<path d="M16.5691 14.8126C15.9466 14.4537 15.9455 13.555 16.567 13.1944C17.1909 12.8322 17.8026 12.4774 18.4143 12.1252C18.7597 11.9244 19.1293 11.7556 19.4507 11.5146C19.8283 11.2334 20.1336 11.2897 20.5273 11.5146C23.3554 13.1697 26.1916 14.8007 29.0277 16.4397C29.1978 16.5479 29.2534 16.7709 29.1529 16.9455C28.5705 17.9565 27.9874 18.9648 27.3974 19.9862C27.1396 20.4325 26.5689 20.5856 26.1225 20.3279C22.9437 18.4932 19.7765 16.6619 16.5691 14.8126Z" fill="#3D3D3D"/>
<path d="M12.763 13.1951C13.3842 13.5546 13.384 14.4517 12.7627 14.8111C11.663 15.4473 10.5891 16.0671 9.50718 16.6788C9.4188 16.727 9.24204 16.719 9.14563 16.6628C6.13272 14.9353 3.1198 13.1919 0.114926 11.4484C0.0336509 11.4078 0.0341234 11.2892 0.0796423 11.2106C0.695392 10.1467 1.30695 9.08677 1.92924 8.00828C2.18723 7.56115 2.75922 7.40843 3.20587 7.66725C6.39117 9.51305 9.55961 11.3413 12.763 13.1951Z" fill="#3D3D3D"/>
</g>
<path d="M94.172 20.6769C93.4431 20.6769 92.8263 20.5398 92.3217 20.2657C91.817 19.9854 91.4339 19.6147 91.1722 19.1536C90.9168 18.6926 90.7891 18.1849 90.7891 17.6304C90.7891 17.1444 90.8701 16.7083 91.032 16.3221C91.194 15.9296 91.4432 15.5931 91.7796 15.3128C92.1161 15.0262 92.5522 14.7926 93.088 14.6119C93.4929 14.4811 93.9664 14.3627 94.5084 14.2568C95.0567 14.1509 95.6485 14.0543 96.284 13.9671C96.9257 13.8736 97.5954 13.774 98.2932 13.668L97.4895 14.126C97.4958 13.4282 97.34 12.9142 97.0223 12.584C96.7045 12.2538 96.1688 12.0887 95.4149 12.0887C94.9601 12.0887 94.5209 12.1946 94.0972 12.4064C93.6736 12.6183 93.3777 12.9827 93.2095 13.4998L91.1535 12.855C91.4027 12.0015 91.8762 11.3162 92.574 10.7991C93.278 10.282 94.225 10.0234 95.4149 10.0234C96.312 10.0234 97.1002 10.1698 97.7792 10.4627C98.4645 10.7555 98.9723 11.2352 99.3025 11.9018C99.4832 12.2569 99.5922 12.6214 99.6296 12.9952C99.6669 13.3628 99.6856 13.7646 99.6856 14.2007V20.3966H97.7138V18.2098L98.0409 18.5649C97.5861 19.2938 97.0534 19.8296 96.4429 20.1723C95.8386 20.5087 95.0816 20.6769 94.172 20.6769ZM94.6206 18.8826C95.1314 18.8826 95.5675 18.7923 95.9289 18.6116C96.2902 18.431 96.5768 18.2098 96.7886 17.9481C97.0067 17.6865 97.1531 17.4404 97.2279 17.2099C97.3462 16.9233 97.4117 16.5962 97.4241 16.2286C97.4428 15.8548 97.4521 15.5526 97.4521 15.3221L98.1437 15.5277C97.4646 15.6336 96.8821 15.7271 96.3961 15.8081C95.9102 15.8891 95.4928 15.967 95.1439 16.0417C94.795 16.1102 94.4866 16.1881 94.2187 16.2753C93.9571 16.3688 93.7359 16.4778 93.5552 16.6024C93.3746 16.727 93.2344 16.8703 93.1347 17.0323C93.0412 17.1943 92.9945 17.3843 92.9945 17.6024C92.9945 17.8516 93.0568 18.0727 93.1814 18.2659C93.306 18.4528 93.4867 18.6023 93.7234 18.7144C93.9664 18.8266 94.2655 18.8826 94.6206 18.8826Z" fill="#3D3D3D"/>
<path d="M86.6589 20.3959V14.2654C86.6589 13.5739 86.4876 13.035 86.1449 12.6487C85.8022 12.2562 85.3381 12.06 84.7525 12.06C84.3911 12.06 84.0672 12.1441 83.7806 12.3123C83.494 12.4743 83.2666 12.7173 83.0984 13.0412C82.9302 13.359 82.8461 13.739 82.8461 14.1813L81.8461 13.5926C81.8399 12.8948 81.9957 12.2812 82.3134 11.7516C82.6374 11.2158 83.0735 10.7984 83.6217 10.4993C84.17 10.2003 84.7805 10.0508 85.4534 10.0508C86.5685 10.0508 87.4221 10.3872 88.0139 11.0601C88.612 11.7267 88.9111 12.6051 88.9111 13.6954V20.3959H86.6589ZM74.5195 20.3959V10.3031H76.51V13.4337H76.7904V20.3959H74.5195ZM80.6032 20.3959V14.2935C80.6032 13.5895 80.4319 13.0412 80.0892 12.6487C79.7466 12.2562 79.2793 12.06 78.6875 12.06C78.1143 12.06 77.6533 12.2562 77.3044 12.6487C76.9617 13.0412 76.7904 13.5521 76.7904 14.1813L75.7811 13.5085C75.7811 12.8543 75.9431 12.2656 76.2671 11.7423C76.591 11.2189 77.0271 10.8077 77.5754 10.5087C78.1299 10.2034 78.7498 10.0508 79.4351 10.0508C80.1889 10.0508 80.8182 10.2128 81.3228 10.5367C81.8337 10.8545 82.2137 11.2906 82.4629 11.845C82.7183 12.3933 82.8461 13.0132 82.8461 13.7047V20.3959H80.6032Z" fill="#3D3D3D"/>
<path d="M67.2643 25.1626C66.7036 25.1626 66.1647 25.0754 65.6476 24.9009C65.1368 24.7265 64.6757 24.4741 64.2646 24.144C63.8534 23.82 63.5169 23.4275 63.2553 22.9665L65.3299 21.9385C65.523 22.3061 65.794 22.5771 66.1429 22.7515C66.498 22.9322 66.875 23.0225 67.2737 23.0225C67.7409 23.0225 68.1584 22.9384 68.5259 22.7702C68.8935 22.6082 69.177 22.3653 69.3763 22.0413C69.5819 21.7236 69.6785 21.3248 69.666 20.8451V17.9762H69.9464V10.3038H71.9182V20.8825C71.9182 21.1379 71.9058 21.3809 71.8808 21.6114C71.8622 21.8482 71.8279 22.0787 71.778 22.303C71.6285 22.9571 71.3419 23.4929 70.9183 23.9103C70.4946 24.334 69.9682 24.6486 69.339 24.8542C68.716 25.0598 68.0244 25.1626 67.2643 25.1626ZM67.0681 20.6769C66.1398 20.6769 65.3299 20.4433 64.6384 19.976C63.9468 19.5088 63.411 18.8733 63.031 18.0696C62.651 17.2659 62.4609 16.3594 62.4609 15.3502C62.4609 14.3284 62.651 13.4188 63.031 12.6214C63.4173 11.8177 63.9624 11.1854 64.6664 10.7243C65.3704 10.2571 66.199 10.0234 67.1522 10.0234C68.1116 10.0234 68.9153 10.2571 69.5633 10.7243C70.2174 11.1854 70.7127 11.8177 71.0491 12.6214C71.3856 13.4251 71.5538 14.3347 71.5538 15.3502C71.5538 16.3532 71.3856 17.2597 71.0491 18.0696C70.7127 18.8733 70.2112 19.5088 69.5446 19.976C68.8779 20.4433 68.0525 20.6769 67.0681 20.6769ZM67.4139 18.6584C68.0182 18.6584 68.5041 18.5213 68.8717 18.2472C69.2455 17.9668 69.5165 17.5774 69.6847 17.079C69.8592 16.5806 69.9464 16.0043 69.9464 15.3502C69.9464 14.6898 69.8592 14.1135 69.6847 13.6213C69.5165 13.1229 69.2517 12.7366 68.8904 12.4625C68.5291 12.1822 68.0618 12.042 67.4886 12.042C66.8843 12.042 66.3859 12.1915 65.9934 12.4906C65.6009 12.7834 65.3112 13.1821 65.1243 13.6867C64.9374 14.1851 64.8439 14.7396 64.8439 15.3502C64.8439 15.967 64.9343 16.5277 65.115 17.0323C65.3019 17.5307 65.5853 17.9263 65.9654 18.2191C66.3454 18.5119 66.8282 18.6584 67.4139 18.6584Z" fill="#3D3D3D"/>
<path d="M57.9668 8.77036V6.70508H60.219V8.77036H57.9668ZM57.9668 20.3957V10.303H60.219V20.3957H57.9668Z" fill="#3D3D3D"/>
<path d="M53.062 20.3942V15.5347C53.062 15.217 53.0402 14.865 52.9966 14.4787C52.953 14.0924 52.8502 13.7217 52.6882 13.3666C52.5325 13.0053 52.2957 12.7094 51.978 12.4788C51.6665 12.2483 51.2428 12.1331 50.707 12.1331C50.4205 12.1331 50.137 12.1798 49.8566 12.2732C49.5763 12.3667 49.3208 12.5287 49.0903 12.7592C48.866 12.9835 48.6854 13.295 48.5483 13.6937C48.4112 14.0862 48.3427 14.5908 48.3427 15.2076L47.0064 14.6376C47.0064 13.7778 47.1715 12.9991 47.5017 12.3013C47.8381 11.6035 48.3303 11.049 48.9782 10.6378C49.6261 10.2204 50.4236 10.0117 51.3705 10.0117C52.1182 10.0117 52.7349 10.1363 53.2209 10.3855C53.7068 10.6347 54.0931 10.9525 54.3797 11.3387C54.6663 11.725 54.8781 12.1362 55.0152 12.5723C55.1522 13.0084 55.2394 13.4227 55.2768 13.8152C55.3204 14.2015 55.3422 14.5161 55.3422 14.7591V20.3942H53.062ZM46.0625 20.3942V10.3014H48.0717V13.432H48.3427V20.3942H46.0625Z" fill="#3D3D3D"/>
<path d="M35.1504 20.3965V6.93945H43.8414V9.05146H37.4026V12.369H42.72V14.481H37.4026V18.2845H43.8414V20.3965H35.1504Z" fill="#3D3D3D"/>
<defs>
<clipPath id="clip0_38_13930">
<rect width="29.3337" height="28" fill="white" transform="translate(0 0.000244141)"/>
</clipPath>
</defs>
</svg>
