<svg width="101" height="28" viewBox="0 0 101 28" fill="none" xmlns="http://www.w3.org/2000/svg">
<g clip-path="url(#clip0_38_13915)">
<path d="M0 22.9975V28.0002L17.1206 20.3484V15.3457L0 22.9975Z" fill="#FF6347"/>
<path d="M0 5.00273V0L17.1206 7.65181V12.6545L0 5.00273Z" fill="#FF6347"/>
<path d="M0 12.657V7.6543L17.1206 15.3061V20.3113L0 12.657Z" fill="#FF6347"/>
</g>
<path d="M92.4764 24.0273L94.5436 18.3525L94.5833 20.0222L89.9023 8.52344H92.3969L95.7163 17.0307H95.0802L98.3102 8.52344H100.705L94.7225 24.0273H92.4764Z" fill="#3D3D3D"/>
<path d="M83.3232 24.3248C82.7269 24.3248 82.1538 24.232 81.6038 24.0465C81.0605 23.861 80.5702 23.5927 80.1329 23.2415C79.6957 22.897 79.3379 22.4796 79.0596 21.9893L81.2659 20.8961C81.4713 21.287 81.7595 21.5752 82.1306 21.7607C82.5082 21.9528 82.9091 22.0489 83.3331 22.0489C83.83 22.0489 84.2739 21.9595 84.6649 21.7806C85.0558 21.6083 85.3572 21.3499 85.5692 21.0054C85.7879 20.6675 85.8906 20.2434 85.8773 19.7333V16.6822H86.1755V8.52276H88.2725V19.773C88.2725 20.0447 88.2592 20.3031 88.2327 20.5482C88.2129 20.8 88.1764 21.0451 88.1234 21.2836C87.9644 21.9793 87.6596 22.5491 87.2091 22.9931C86.7585 23.4436 86.1987 23.7782 85.5295 23.9968C84.8669 24.2155 84.1315 24.3248 83.3232 24.3248ZM83.1145 19.5544C82.1273 19.5544 81.2659 19.3059 80.5305 18.809C79.795 18.3121 79.2252 17.6363 78.8211 16.7816C78.4169 15.9269 78.2148 14.9628 78.2148 13.8895C78.2148 12.8029 78.4169 11.8356 78.8211 10.9875C79.2319 10.1328 79.8116 9.46028 80.5603 8.96999C81.309 8.47307 82.1902 8.22461 83.2039 8.22461C84.2243 8.22461 85.079 8.47307 85.768 8.96999C86.4637 9.46028 86.9904 10.1328 87.3482 10.9875C87.706 11.8422 87.8849 12.8095 87.8849 13.8895C87.8849 14.9562 87.706 15.9202 87.3482 16.7816C86.9904 17.6363 86.4571 18.3121 85.7481 18.809C85.0392 19.3059 84.1613 19.5544 83.1145 19.5544ZM83.4822 17.4077C84.1249 17.4077 84.6417 17.2619 85.0326 16.9704C85.4301 16.6722 85.7183 16.2581 85.8972 15.7281C86.0827 15.198 86.1755 14.5852 86.1755 13.8895C86.1755 13.1872 86.0827 12.5743 85.8972 12.0509C85.7183 11.5208 85.4367 11.1101 85.0525 10.8185C84.6682 10.5204 84.1712 10.3713 83.5617 10.3713C82.919 10.3713 82.389 10.5303 81.9716 10.8483C81.5541 11.1597 81.246 11.5838 81.0473 12.1205C80.8485 12.6505 80.7491 13.2402 80.7491 13.8895C80.7491 14.5454 80.8452 15.1417 81.0373 15.6784C81.2361 16.2084 81.5376 16.6292 81.9417 16.9406C82.3459 17.252 82.8594 17.4077 83.4822 17.4077Z" fill="#3D3D3D"/>
<path d="M71.2617 19.2574V8.52395H73.3786V11.1377L73.1202 10.7998C73.2527 10.4421 73.4283 10.1174 73.6469 9.82588C73.8722 9.52773 74.1405 9.28258 74.4519 9.09044C74.717 8.91155 75.0085 8.77241 75.3265 8.67303C75.6512 8.56702 75.9825 8.50408 76.3204 8.4842C76.6583 8.4577 76.9862 8.47095 77.3043 8.52395V10.7601C76.9862 10.6673 76.6185 10.6375 76.2011 10.6706C75.7903 10.7038 75.4193 10.8197 75.088 11.0185C74.7567 11.1974 74.4851 11.426 74.2731 11.7042C74.0677 11.9825 73.9153 12.3005 73.8159 12.6583C73.7165 13.0095 73.6668 13.3904 73.6668 13.8012V19.2574H71.2617Z" fill="#3D3D3D"/>
<path d="M64.187 19.5546C63.1004 19.5546 62.1463 19.3194 61.3247 18.849C60.5032 18.3786 59.8605 17.726 59.3967 16.8911C58.9395 16.0563 58.7109 15.0956 58.7109 14.009C58.7109 12.8363 58.9362 11.8192 59.3867 10.9579C59.8373 10.09 60.4634 9.41746 61.2651 8.94042C62.0668 8.46337 62.9944 8.22485 64.0479 8.22485C65.1609 8.22485 66.1051 8.48656 66.8803 9.00999C67.6621 9.52678 68.2419 10.2589 68.6195 11.2064C68.9972 12.1538 69.1396 13.2702 69.0469 14.5556H66.6716V13.681C66.665 12.5149 66.4596 11.6635 66.0554 11.1269C65.6512 10.5902 65.0152 10.3219 64.1472 10.3219C63.1666 10.3219 62.4378 10.6266 61.9608 11.2362C61.4837 11.8391 61.2452 12.7236 61.2452 13.8897C61.2452 14.9763 61.4837 15.8178 61.9608 16.4141C62.4378 17.0104 63.1335 17.3085 64.0479 17.3085C64.6375 17.3085 65.1444 17.1793 65.5684 16.9209C65.9991 16.6559 66.3304 16.2749 66.5623 15.778L68.9276 16.4936C68.5168 17.4609 67.8808 18.2129 67.0194 18.7496C66.1647 19.2863 65.2206 19.5546 64.187 19.5546ZM60.4899 14.5556V12.7468H67.8741V14.5556H60.4899Z" fill="#3D3D3D"/>
<path d="M54.4634 19.2564V14.0884C54.4634 13.7505 54.4402 13.3762 54.3938 12.9654C54.3474 12.5546 54.2381 12.1604 54.0658 11.7827C53.9002 11.3984 53.6484 11.0837 53.3105 10.8386C52.9792 10.5934 52.5287 10.4709 51.9589 10.4709C51.6541 10.4709 51.3527 10.5205 51.0545 10.6199C50.7564 10.7193 50.4847 10.8916 50.2396 11.1367C50.001 11.3753 49.8089 11.7065 49.6631 12.1306C49.5174 12.548 49.4445 13.0847 49.4445 13.7406L48.0233 13.1343C48.0233 12.22 48.1989 11.3918 48.55 10.6497C48.9078 9.90768 49.4312 9.318 50.1203 8.88072C50.8094 8.4368 51.6574 8.21484 52.6645 8.21484C53.4596 8.21484 54.1155 8.34736 54.6323 8.61238C55.1491 8.8774 55.5599 9.21531 55.8647 9.62609C56.1695 10.0369 56.3947 10.4742 56.5405 10.938C56.6863 11.4018 56.779 11.8424 56.8188 12.2598C56.8652 12.6706 56.8883 13.0051 56.8883 13.2635V19.2564H54.4634ZM47.0195 19.2564V8.52293H49.1563V11.8523H49.4445V19.2564H47.0195Z" fill="#3D3D3D"/>
<path d="M37.324 24.0273L39.3912 18.3525L39.431 20.0222L34.75 8.52344H37.2445L40.564 17.0307H39.9279L43.1579 8.52344H45.553L39.5701 24.0273H37.324Z" fill="#3D3D3D"/>
<path d="M28.3393 19.5559C27.2925 19.5559 26.3483 19.3737 25.5069 19.0093C24.672 18.6449 23.983 18.1248 23.4397 17.4489C22.903 16.7665 22.5618 15.9582 22.416 15.024L24.9006 14.6463C25.1126 15.4944 25.5466 16.1503 26.2025 16.6141C26.8651 17.0779 27.627 17.3098 28.4884 17.3098C28.9985 17.3098 29.4789 17.2303 29.9294 17.0713C30.38 16.9123 30.7444 16.6804 31.0227 16.3756C31.3076 16.0708 31.45 15.6965 31.45 15.2526C31.45 15.0538 31.4169 14.8716 31.3506 14.7059C31.2844 14.5337 31.185 14.3813 31.0525 14.2488C30.9266 14.1163 30.7609 13.997 30.5556 13.891C30.3568 13.7784 30.1249 13.6823 29.8599 13.6028L26.1628 12.5096C25.8448 12.4168 25.5002 12.2942 25.1292 12.1418C24.7648 11.9828 24.4169 11.7675 24.0857 11.4958C23.761 11.2176 23.4927 10.8664 23.2807 10.4424C23.0753 10.0117 22.9726 9.48167 22.9726 8.85224C22.9726 7.93128 23.2045 7.1594 23.6683 6.53659C24.1387 5.90716 24.7681 5.43674 25.5565 5.12534C26.3516 4.81394 27.2328 4.66155 28.2002 4.66818C29.1807 4.6748 30.0553 4.84375 30.8239 5.17503C31.5925 5.49969 32.2351 5.97342 32.7519 6.59622C33.2687 7.21903 33.6331 7.97103 33.8452 8.85224L31.2711 9.29946C31.1651 8.79592 30.9597 8.36857 30.6549 8.01741C30.3568 7.65963 29.9891 7.38798 29.5518 7.20246C29.1211 7.01695 28.6606 6.91756 28.1703 6.90431C27.6933 6.89769 27.2494 6.97057 26.8386 7.12296C26.4344 7.26872 26.1065 7.48074 25.8547 7.75901C25.6095 8.03729 25.487 8.36194 25.487 8.73298C25.487 9.08413 25.593 9.37235 25.805 9.59762C26.017 9.81626 26.2787 9.99184 26.5901 10.1244C26.9082 10.2502 27.2295 10.3562 27.5542 10.4424L30.1183 11.1579C30.4694 11.2507 30.8636 11.3766 31.3009 11.5356C31.7382 11.6946 32.1589 11.9166 32.5631 12.2015C32.9673 12.4864 33.2985 12.8607 33.5569 13.3245C33.822 13.7883 33.9545 14.378 33.9545 15.0935C33.9545 15.8356 33.7988 16.4882 33.4874 17.0514C33.1826 17.608 32.7685 18.0717 32.2451 18.4428C31.7217 18.8138 31.122 19.0921 30.4462 19.2776C29.777 19.4631 29.0747 19.5559 28.3393 19.5559Z" fill="#3D3D3D"/>
<defs>
<clipPath id="clip0_38_13915">
<rect width="17.1206" height="28" fill="white"/>
</clipPath>
</defs>
</svg>
