<svg width="108" height="28" viewBox="0 0 108 28" fill="none" xmlns="http://www.w3.org/2000/svg">
<g clip-path="url(#clip0_38_13899)">
<path fill-rule="evenodd" clip-rule="evenodd" d="M4.69768 23.2776C-2.14605 17.2164 -1.23849 7.37678 5.62376 2.50098C10.444 -0.920883 17.7832 -1.34225 22.4552 4.49205C25.766 8.62699 25.9929 14.5724 23.8953 18.161C22.5803 20.4021 19.5612 22.0598 17.7137 19.8464C16.0329 17.8368 17.9082 16.0541 18.5657 13.7065C20.9133 5.29311 9.26788 -0.666211 3.1326 7.42772C0.00245636 11.558 0.178411 17.9248 4.69768 23.2776Z" fill="#3D3D3D"/>
<path fill-rule="evenodd" clip-rule="evenodd" d="M26.1676 4.92212C32.8724 11.1407 31.738 20.9572 24.7646 25.6709C19.8656 28.9817 12.5218 29.2317 7.98404 23.2955C4.76591 19.0819 4.67794 13.1318 6.85885 9.59419C8.22482 7.38549 11.2809 5.79263 13.0821 8.05227C14.7166 10.0989 12.795 11.8399 12.0866 14.169C9.54911 22.5315 21.051 28.7594 27.3715 20.8044C30.5943 16.7481 30.5665 10.3721 26.1722 4.92212H26.1676Z" fill="#3D3D3D"/>
</g>
<path d="M99.8791 24.852L101.783 19.6252L101.82 21.163L97.5083 10.572H99.8059L102.863 18.4077H102.277L105.252 10.572H107.459L101.948 24.852H99.8791Z" fill="#3D3D3D"/>
<path d="M96.7215 20.4582C96.0685 20.5803 95.4277 20.6322 94.7992 20.6139C94.1767 20.6016 93.6183 20.4887 93.124 20.2752C92.6297 20.0555 92.2544 19.7107 91.9981 19.2408C91.7723 18.8136 91.6533 18.3773 91.6411 17.9318C91.6289 17.4863 91.6228 16.9828 91.6228 16.4214V7.82593H93.8197V16.2932C93.8197 16.6899 93.8227 17.0377 93.8288 17.3368C93.8411 17.6358 93.9051 17.8799 94.0211 18.0691C94.2408 18.4352 94.5917 18.6397 95.0738 18.6824C95.5559 18.7251 96.1051 18.7007 96.7215 18.6092V20.4582ZM89.8286 12.3022V10.5721H96.7215V12.3022H89.8286Z" fill="#3D3D3D"/>
<path d="M85.9771 9.06768V7.04468H88.1831V9.06768H85.9771ZM85.9771 20.4551V10.5689H88.1831V20.4551H85.9771Z" fill="#3D3D3D"/>
<path d="M79.8292 20.732C78.8101 20.732 77.9405 20.5062 77.2204 20.0546C76.5003 19.5969 75.948 18.9745 75.5635 18.1872C75.1851 17.4 74.9929 16.509 74.9868 15.5143C74.9929 14.5013 75.1913 13.6042 75.5818 12.8231C75.9785 12.0359 76.5399 11.4195 77.2661 10.974C77.9923 10.5224 78.8558 10.2966 79.8567 10.2966C80.9795 10.2966 81.9285 10.5804 82.7035 11.1479C83.4846 11.7094 83.9942 12.4783 84.2322 13.4547L82.0353 14.0497C81.8644 13.5188 81.5806 13.1069 81.184 12.8139C80.7873 12.5149 80.3357 12.3654 79.8292 12.3654C79.2556 12.3654 78.7826 12.5027 78.4104 12.7773C78.0381 13.0458 77.7635 13.4181 77.5865 13.8941C77.4095 14.3701 77.321 14.9102 77.321 15.5143C77.321 16.4541 77.5316 17.2139 77.9527 17.7936C78.3737 18.3734 78.9993 18.6632 79.8292 18.6632C80.415 18.6632 80.8758 18.529 81.2114 18.2605C81.5532 17.992 81.8095 17.6045 81.9804 17.0979L84.2322 17.6014C83.9271 18.6083 83.3931 19.3833 82.6303 19.9265C81.8675 20.4635 80.9338 20.732 79.8292 20.732Z" fill="#3D3D3D"/>
<path d="M68.5821 20.732C67.5935 20.732 66.73 20.5093 65.9916 20.0638C65.2532 19.6183 64.6795 19.005 64.2707 18.2239C63.8679 17.4366 63.6665 16.5335 63.6665 15.5143C63.6665 14.4769 63.874 13.5676 64.289 12.7865C64.7039 12.0053 65.2806 11.3951 66.019 10.9557C66.7575 10.5163 67.6118 10.2966 68.5821 10.2966C69.5768 10.2966 70.4434 10.5194 71.1818 10.9649C71.9202 11.4103 72.4939 12.0267 72.9027 12.8139C73.3116 13.5951 73.516 14.4952 73.516 15.5143C73.516 16.5396 73.3086 17.4458 72.8936 18.233C72.4847 19.0141 71.9111 19.6275 71.1727 20.0729C70.4343 20.5123 69.5707 20.732 68.5821 20.732ZM68.5821 18.6632C69.4609 18.6632 70.1139 18.3703 70.541 17.7845C70.9682 17.1986 71.1818 16.4419 71.1818 15.5143C71.1818 14.5562 70.9652 13.7934 70.5319 13.2259C70.0986 12.6522 69.4487 12.3654 68.5821 12.3654C67.9902 12.3654 67.502 12.4997 67.1175 12.7682C66.7391 13.0306 66.4584 13.3998 66.2754 13.8758C66.0923 14.3457 66.0007 14.8919 66.0007 15.5143C66.0007 16.4724 66.2174 17.2383 66.6507 17.8119C67.09 18.3795 67.7339 18.6632 68.5821 18.6632Z" fill="#3D3D3D"/>
<path d="M59.272 20.4557V6.99951H61.478V20.4557H59.272Z" fill="#3D3D3D"/>
<path d="M52.5677 20.732C51.5669 20.732 50.6881 20.5154 49.9314 20.0821C49.1747 19.6488 48.5827 19.0477 48.1555 18.2788C47.7345 17.5099 47.5239 16.625 47.5239 15.6242C47.5239 14.544 47.7314 13.6073 48.1464 12.8139C48.5614 12.0145 49.1381 11.3951 49.8765 10.9557C50.6149 10.5163 51.4692 10.2966 52.4395 10.2966C53.4648 10.2966 54.3344 10.5377 55.0484 11.0198C55.7685 11.4958 56.3025 12.1701 56.6503 13.0428C56.9982 13.9155 57.1294 14.9437 57.0439 16.1276H54.8562V15.3221C54.8501 14.248 54.6609 13.4639 54.2886 12.9696C53.9164 12.4752 53.3305 12.2281 52.5311 12.2281C51.6279 12.2281 50.9566 12.5088 50.5172 13.0702C50.0778 13.6256 49.8582 14.4403 49.8582 15.5143C49.8582 16.5151 50.0778 17.2902 50.5172 17.8394C50.9566 18.3886 51.5974 18.6632 52.4395 18.6632C52.9827 18.6632 53.4495 18.5442 53.8401 18.3062C54.2367 18.0621 54.5419 17.7112 54.7555 17.2536L56.9341 17.9126C56.5557 18.8036 55.9699 19.4962 55.1765 19.9906C54.3893 20.4849 53.5197 20.732 52.5677 20.732ZM49.1625 16.1276V14.4616H55.9638V16.1276H49.1625Z" fill="#3D3D3D"/>
<path d="M40.4005 20.4589L36.2446 7.27734H38.5148L41.9932 18.3169L45.5175 7.27734H47.7876L43.6318 20.4589H40.4005Z" fill="#3D3D3D"/>
<defs>
<clipPath id="clip0_38_13899">
<rect width="30.6393" height="28" fill="white"/>
</clipPath>
</defs>
</svg>
