<svg width="94" height="28" viewBox="0 0 94 28" fill="none" xmlns="http://www.w3.org/2000/svg">
<g clip-path="url(#clip0_38_13881)">
<path d="M0 13.9922C0 17.8571 1.60874 21.5808 4.43778 24.2332C5.29709 22.7775 5.57567 20.9451 5.06951 19.0931C4.37108 16.5269 2.35426 14.6239 0 13.9922Z" fill="#FF6347"/>
<path d="M0.723681 9.58791C0.374466 10.6356 0.150811 11.7028 0.0566406 12.7622C3.31729 13.0879 6.08355 16.843 6.4053 21.6064C6.49947 22.9954 6.36998 24.3256 6.06785 25.5341C6.8016 26.0403 7.5942 26.4758 8.44173 26.8446C8.88904 24.6238 8.87334 22.1675 8.30047 19.6877C7.1822 14.8418 4.21976 11.126 0.723681 9.58398V9.58791Z" fill="#FF6347"/>
<path d="M15.823 7.25969C19.3622 8.05622 22.8308 7.53043 25.5186 6.04333C25.0163 5.31351 24.4435 4.63077 23.8039 4.00689C21.3712 5.96485 17.2826 6.36508 13.3706 4.73671C11.3302 3.88918 9.64695 2.61396 8.45412 1.15039C8.08137 1.31127 7.71253 1.48783 7.35547 1.68402C9.12116 4.32864 12.1268 6.42786 15.823 7.25969Z" fill="#FF6347"/>
<path d="M27.8471 16.0767C27.9609 15.3115 28.0119 14.5425 28.0001 13.7812C25.0769 14.7033 22.3067 16.8496 20.4429 19.9612C19.0265 22.3272 18.3477 24.8894 18.3516 27.3065C18.6812 27.2005 19.0029 27.0828 19.3247 26.9533C19.615 24.7521 20.7804 22.233 22.7187 19.9886C24.2765 18.1837 26.0853 16.8496 27.8471 16.0806V16.0767Z" fill="#FF6347"/>
<path d="M26.6367 7.98226C22.6894 9.7872 16.6507 9.61063 10.6669 7.12296C8.38331 6.17341 6.3351 4.98058 4.58903 3.64258C3.45114 4.67453 2.4702 5.90267 1.70898 7.3113C6.22916 9.21433 9.92535 16.2065 10.5021 24.7681C10.5649 25.7216 10.5885 26.6594 10.5728 27.5776C12.4993 28.068 14.4573 28.1269 16.3368 27.8051C16.6193 23.8657 18.64 19.216 22.191 15.1078C23.843 13.1969 25.6557 11.6 27.5117 10.3483C27.2919 9.53608 27.0016 8.74347 26.6367 7.98226ZM14.4416 19.0434C8.81492 19.0434 8.82277 10.313 14.4416 10.313C20.0604 10.313 20.0604 19.0434 14.4416 19.0434Z" fill="#FF6347"/>
<path d="M16.4842 4.5901C18.7208 5.00209 20.9769 4.37037 22.7191 3.04413C21.7264 2.25546 20.612 1.58449 19.38 1.0744C16.7157 -0.0321011 13.9024 -0.255756 11.2656 0.273953C12.0739 2.4438 13.9652 4.12709 16.4842 4.5901Z" fill="#FF6347"/>
<path d="M27.0763 18.9844C25.0202 19.31 22.9838 20.6834 21.685 22.8454C20.9983 23.9911 20.6138 25.2114 20.4961 26.4003C23.2937 24.9367 25.6166 22.5197 26.9232 19.3768C26.9782 19.2473 27.0252 19.1139 27.0763 18.9844Z" fill="#FF6347"/>
</g>
<path d="M83.291 21.046L87.1438 15.7203L83.369 10.5117H86.1392L88.5094 13.8768L90.8406 10.5117H93.6107L89.8359 15.7203L93.7083 21.046H90.9381L88.5094 17.5638L86.0611 21.046H83.291Z" fill="#3D3D3D"/>
<path d="M77.894 21.3402C76.8275 21.3402 75.8912 21.1094 75.0848 20.6477C74.2785 20.186 73.6477 19.5455 73.1926 18.7262C72.7439 17.9068 72.5195 16.9639 72.5195 15.8975C72.5195 14.7465 72.7406 13.7484 73.1828 12.903C73.625 12.0512 74.2395 11.3912 75.0263 10.923C75.8131 10.4548 76.7235 10.2207 77.7574 10.2207C78.8499 10.2207 79.7765 10.4776 80.5373 10.9913C81.3046 11.4985 81.8736 12.217 82.2442 13.1469C82.6149 14.0768 82.7547 15.1725 82.6637 16.434H80.3325V15.5756C80.326 14.4312 80.1244 13.5956 79.7277 13.0689C79.3311 12.5421 78.7068 12.2788 77.855 12.2788C76.8926 12.2788 76.1773 12.5779 75.7091 13.1762C75.2409 13.7679 75.0068 14.636 75.0068 15.7805C75.0068 16.8469 75.2409 17.6727 75.7091 18.258C76.1773 18.8432 76.86 19.1358 77.7574 19.1358C78.3362 19.1358 78.8336 19.009 79.2498 18.7554C79.6724 18.4953 79.9976 18.1214 80.2252 17.6337L82.5466 18.336C82.1435 19.2854 81.5192 20.0234 80.6739 20.5502C79.835 21.0769 78.9084 21.3402 77.894 21.3402ZM74.2655 16.434V14.6588H81.5127V16.434H74.2655Z" fill="#3D3D3D"/>
<path d="M71.376 21.0464C70.6802 21.1765 69.9974 21.2317 69.3277 21.2122C68.6644 21.1992 68.0694 21.0789 67.5427 20.8513C67.016 20.6172 66.6161 20.2498 66.3429 19.7491C66.1023 19.294 65.9755 18.829 65.9625 18.3543C65.9495 17.8796 65.943 17.3432 65.943 16.7449V7.58594H68.284V16.6084C68.284 17.031 68.2872 17.4017 68.2937 17.7203C68.3067 18.0389 68.375 18.299 68.4986 18.5006C68.7327 18.8908 69.1066 19.1086 69.6203 19.1541C70.134 19.1997 70.7192 19.1737 71.376 19.0761V21.0464ZM64.0312 12.3556V10.5121H71.376V12.3556H64.0312Z" fill="#3D3D3D"/>
<path d="M57.4082 21.0453V10.511H59.4858V13.0763L59.2322 12.7447C59.3622 12.3935 59.5346 12.0749 59.7492 11.7888C59.9702 11.4962 60.2336 11.2556 60.5392 11.067C60.7993 10.8914 61.0855 10.7549 61.3976 10.6573C61.7162 10.5533 62.0413 10.4915 62.373 10.472C62.7046 10.446 63.0265 10.459 63.3386 10.511V12.7056C63.0265 12.6146 62.6656 12.5854 62.2559 12.6179C61.8528 12.6504 61.4886 12.7642 61.1635 12.9593C60.8384 13.1348 60.5717 13.3592 60.3637 13.6323C60.1621 13.9054 60.0125 14.2175 59.915 14.5687C59.8174 14.9133 59.7687 15.2872 59.7687 15.6904V21.0453H57.4082Z" fill="#3D3D3D"/>
<path d="M50.0035 21.3402C48.9501 21.3402 48.03 21.1029 47.2431 20.6282C46.4563 20.1535 45.8451 19.5 45.4094 18.6676C44.9802 17.8288 44.7656 16.8664 44.7656 15.7805C44.7656 14.675 44.9867 13.7061 45.4289 12.8738C45.8711 12.0414 46.4856 11.3912 47.2724 10.923C48.0592 10.4548 48.9696 10.2207 50.0035 10.2207C51.0634 10.2207 51.9868 10.458 52.7736 10.9327C53.5605 11.4074 54.1717 12.0642 54.6074 12.903C55.0431 13.7354 55.2609 14.6945 55.2609 15.7805C55.2609 16.8729 55.0398 17.8386 54.5976 18.6774C54.1619 19.5097 53.5507 20.1632 52.7639 20.6379C51.9771 21.1061 51.0569 21.3402 50.0035 21.3402ZM50.0035 19.1358C50.9399 19.1358 51.6357 18.8237 52.0909 18.1994C52.546 17.5752 52.7736 16.7689 52.7736 15.7805C52.7736 14.7595 52.5428 13.9467 52.0811 13.342C51.6194 12.7307 50.9269 12.4251 50.0035 12.4251C49.3727 12.4251 48.8525 12.5682 48.4429 12.8543C48.0397 13.1339 47.7406 13.5273 47.5455 14.0345C47.3504 14.5352 47.2529 15.1172 47.2529 15.7805C47.2529 16.8014 47.4837 17.6175 47.9454 18.2287C48.4136 18.8335 49.0996 19.1358 50.0035 19.1358Z" fill="#3D3D3D"/>
<path d="M37.1783 21.0455L32.75 6.99976H35.169L38.8755 18.763L42.6308 6.99976H45.0498L40.6215 21.0455H37.1783Z" fill="#3D3D3D"/>
<defs>
<clipPath id="clip0_38_13881">
<rect width="28" height="28" fill="white"/>
</clipPath>
</defs>
</svg>
